<?xml version="1.0" encoding="UTF-8" standalone="no"?>
<!-- Created with Inkscape (http://www.inkscape.org/) -->

<svg
   width="210mm"
   height="297mm"
   viewBox="0 0 210 297"
   version="1.1"
   id="svg12199"
   inkscape:version="1.2.2 (1:1.2.2+202212051550+b0a8486541)"
   sodipodi:docname="coin.svg"
   xmlns:inkscape="http://www.inkscape.org/namespaces/inkscape"
   xmlns:sodipodi="http://sodipodi.sourceforge.net/DTD/sodipodi-0.dtd"
   xmlns="http://www.w3.org/2000/svg"
   xmlns:svg="http://www.w3.org/2000/svg">
  <sodipodi:namedview
     id="namedview12201"
     pagecolor="#ffffff"
     bordercolor="#000000"
     borderopacity="0.25"
     inkscape:showpageshadow="2"
     inkscape:pageopacity="0.0"
     inkscape:pagecheckerboard="0"
     inkscape:deskcolor="#d1d1d1"
     inkscape:document-units="mm"
     showgrid="false"
     inkscape:zoom="0.75722503"
     inkscape:cx="397.50403"
     inkscape:cy="561.92015"
     inkscape:window-width="1848"
     inkscape:window-height="1016"
     inkscape:window-x="72"
     inkscape:window-y="27"
     inkscape:window-maximized="1"
     inkscape:current-layer="layer1" />
  <defs
     id="defs12196">
    <clipPath
       clipPathUnits="userSpaceOnUse"
       id="clipPath1164">
      <path
         d="m 16314,6263.1 c -794.2,0 -1440.6,631.2 -1465.7,1419.3 25.5,787.8 671.7,1418.7 1465.7,1418.7 794,0 1440.3,-630.8 1465.8,-1418.7 -25.2,-788.1 -671.6,-1419.3 -1465.8,-1419.3 m -1107.8,1416.7 v 0 c 0,-611.8 496,-1107.8 1107.8,-1107.8 611.9,0 1107.8,496 1107.8,1107.8 v 0 0 c 0,611.8 -495.9,1107.8 -1107.8,1107.8 -611.8,0 -1107.8,-496 -1107.8,-1107.8 v 0"
         id="path1162" />
    </clipPath>
    <linearGradient
       x1="0"
       y1="0"
       x2="1"
       y2="0"
       gradientUnits="userSpaceOnUse"
       gradientTransform="matrix(0,2933.87,2933.87,0,16314,6212.9)"
       spreadMethod="pad"
       id="linearGradient1178">
      <stop
         style="stop-opacity:1;stop-color:#be6d00"
         offset="0"
         id="stop1168" />
      <stop
         style="stop-opacity:1;stop-color:#be6d00"
         offset="0.26974194"
         id="stop1170" />
      <stop
         style="stop-opacity:1;stop-color:#fff57f"
         offset="0.545194"
         id="stop1172" />
      <stop
         style="stop-opacity:1;stop-color:#de9700"
         offset="0.994382"
         id="stop1174" />
      <stop
         style="stop-opacity:1;stop-color:#de9700"
         offset="1"
         id="stop1176" />
    </linearGradient>
    <clipPath
       clipPathUnits="userSpaceOnUse"
       id="clipPath1188">
      <path
         d="m 16314,6212.9 c -810.2,0 -1466.9,656.7 -1466.9,1466.9 v 0 c 0,-7.7 0.4,-15.2 0.5,-22.8 0.2,8.5 0.4,16.9 0.7,25.4 25.1,-788.1 671.5,-1419.3 1465.7,-1419.3 794.2,0 1440.6,631.2 1465.8,1419.3 0.2,-8.4 0.4,-16.9 0.6,-25.4 0.1,7.6 0.5,15.1 0.5,22.8 v 0 c 0,-810.2 -656.7,-1466.9 -1466.9,-1466.9"
         id="path1186" />
    </clipPath>
    <linearGradient
       x1="0"
       y1="0"
       x2="1"
       y2="0"
       gradientUnits="userSpaceOnUse"
       gradientTransform="matrix(0,2933.87,2933.87,0,16314,6212.9)"
       spreadMethod="pad"
       id="linearGradient1202">
      <stop
         style="stop-opacity:1;stop-color:#8c5408"
         offset="0"
         id="stop1192" />
      <stop
         style="stop-opacity:1;stop-color:#8c5408"
         offset="0.26974194"
         id="stop1194" />
      <stop
         style="stop-opacity:1;stop-color:#bab361"
         offset="0.545194"
         id="stop1196" />
      <stop
         style="stop-opacity:1;stop-color:#a37108"
         offset="0.994382"
         id="stop1198" />
      <stop
         style="stop-opacity:1;stop-color:#a37108"
         offset="1"
         id="stop1200" />
    </linearGradient>
    <clipPath
       clipPathUnits="userSpaceOnUse"
       id="clipPath1212">
      <path
         d="m 17780.9,7679.8 c 0,8.4 -0.4,16.7 -0.6,25.1 -0.1,-7.5 -0.3,-15 -0.5,-22.5 -25.5,787.9 -671.8,1418.7 -1465.8,1418.7 -794,0 -1440.2,-630.9 -1465.7,-1418.7 -0.3,7.5 -0.5,15 -0.6,22.5 -0.1,-8.4 -0.6,-16.7 -0.6,-25.1 0,810.2 656.7,1466.9 1466.9,1466.9 810.2,0 1466.9,-656.7 1466.9,-1466.9"
         id="path1210" />
    </clipPath>
    <linearGradient
       x1="0"
       y1="0"
       x2="1"
       y2="0"
       gradientUnits="userSpaceOnUse"
       gradientTransform="matrix(0,2933.87,2933.87,0,16314,6212.9)"
       spreadMethod="pad"
       id="linearGradient1226">
      <stop
         style="stop-opacity:1;stop-color:#e8d7c2"
         offset="0"
         id="stop1216" />
      <stop
         style="stop-opacity:1;stop-color:#e8d7c2"
         offset="0.26974194"
         id="stop1218" />
      <stop
         style="stop-opacity:1;stop-color:#f5f3db"
         offset="0.545194"
         id="stop1220" />
      <stop
         style="stop-opacity:1;stop-color:#eee0c2"
         offset="0.994382"
         id="stop1222" />
      <stop
         style="stop-opacity:1;stop-color:#eee0c2"
         offset="1"
         id="stop1224" />
    </linearGradient>
    <clipPath
       clipPathUnits="userSpaceOnUse"
       id="clipPath1236">
      <path
         d="m 17780.4,7657 c -0.2,8.5 -0.4,17 -0.6,25.4 0.2,7.5 0.4,15 0.5,22.5 0.2,-8.4 0.6,-16.7 0.6,-25.1 v 0 c 0,-7.7 -0.4,-15.2 -0.5,-22.8 m -2932.8,0 c -0.1,7.6 -0.5,15.1 -0.5,22.8 v 0 c 0,8.4 0.5,16.7 0.6,25.1 0.1,-7.5 0.3,-15 0.6,-22.5 -0.3,-8.5 -0.5,-16.9 -0.7,-25.4"
         id="path1234" />
    </clipPath>
    <linearGradient
       x1="0"
       y1="0"
       x2="1"
       y2="0"
       gradientUnits="userSpaceOnUse"
       gradientTransform="matrix(0,2933.87,2933.87,0,16314,6212.9)"
       spreadMethod="pad"
       id="linearGradient1250">
      <stop
         style="stop-opacity:1;stop-color:#ded2c3"
         offset="0"
         id="stop1240" />
      <stop
         style="stop-opacity:1;stop-color:#ded2c3"
         offset="0.26974194"
         id="stop1242" />
      <stop
         style="stop-opacity:1;stop-color:#e7e5d5"
         offset="0.545194"
         id="stop1244" />
      <stop
         style="stop-opacity:1;stop-color:#e2d8c3"
         offset="0.994382"
         id="stop1246" />
      <stop
         style="stop-opacity:1;stop-color:#e2d8c3"
         offset="1"
         id="stop1248" />
    </linearGradient>
    <clipPath
       clipPathUnits="userSpaceOnUse"
       id="clipPath1260">
      <path
         d="m 16314,6072.2 c -886.4,0 -1607.6,721.1 -1607.6,1607.6 0,886.5 721.2,1607.6 1607.6,1607.6 886.5,0 1607.6,-721.1 1607.6,-1607.6 0,-886.5 -721.1,-1607.6 -1607.6,-1607.6 m -1466.9,1607.6 v 0 c 0,-810.2 656.7,-1466.9 1466.9,-1466.9 810.2,0 1466.9,656.7 1466.9,1466.9 v 0 0 0 c 0,810.2 -656.7,1466.9 -1466.9,1466.9 -810.2,0 -1466.9,-656.7 -1466.9,-1466.9 v 0 0"
         id="path1258" />
    </clipPath>
    <linearGradient
       x1="0"
       y1="0"
       x2="1"
       y2="0"
       gradientUnits="userSpaceOnUse"
       gradientTransform="matrix(0,3215.26,3215.26,0,16314,6072.2)"
       spreadMethod="pad"
       id="linearGradient1274">
      <stop
         style="stop-opacity:1;stop-color:#900093"
         offset="0"
         id="stop1264" />
      <stop
         style="stop-opacity:1;stop-color:#900093"
         offset="0.0723023"
         id="stop1266" />
      <stop
         style="stop-opacity:1;stop-color:#fb31ff"
         offset="0.5"
         id="stop1268" />
      <stop
         style="stop-opacity:1;stop-color:#69006b"
         offset="0.85994529"
         id="stop1270" />
      <stop
         style="stop-opacity:1;stop-color:#69006b"
         offset="1"
         id="stop1272" />
    </linearGradient>
    <clipPath
       clipPathUnits="userSpaceOnUse"
       id="clipPath1288">
      <path
         d="m 16314,6572 c -611.8,0 -1107.8,496 -1107.8,1107.8 v 0 c 0,-611.8 496,-1107.8 1107.8,-1107.8 611.9,0 1107.8,496 1107.8,1107.8 v 0 C 17421.8,7068 16925.9,6572 16314,6572"
         id="path1286" />
    </clipPath>
    <linearGradient
       x1="0"
       y1="0"
       x2="1"
       y2="0"
       gradientUnits="userSpaceOnUse"
       gradientTransform="matrix(0,2933.87,2933.87,0,16314,6212.9)"
       spreadMethod="pad"
       id="linearGradient1302">
      <stop
         style="stop-opacity:1;stop-color:#5c3b10"
         offset="0"
         id="stop1292" />
      <stop
         style="stop-opacity:1;stop-color:#5c3b10"
         offset="0.26974194"
         id="stop1294" />
      <stop
         style="stop-opacity:1;stop-color:#767242"
         offset="0.545194"
         id="stop1296" />
      <stop
         style="stop-opacity:1;stop-color:#684c10"
         offset="0.994382"
         id="stop1298" />
      <stop
         style="stop-opacity:1;stop-color:#684c10"
         offset="1"
         id="stop1300" />
    </linearGradient>
    <clipPath
       clipPathUnits="userSpaceOnUse"
       id="clipPath1316">
      <path
         d="m 16356,6763.6 h -86.4 v 203.2 h -93.4 c -193.1,0 -289.6,102.8 -289.6,308.4 v 156.4 h 275.6 v -196.2 0 c 0,-12.5 4.2,-23.3 12.8,-32.7 8.6,-9.3 19.1,-14 31.5,-14 h 63.1 v 436.8 0 h -93.4 c -193.1,0 -289.6,102.8 -289.6,308.3 v 282.6 c 0,205.6 96.5,308.3 289.6,308.3 h 93.4 v 121.5 h 86.4 v -121.5 h 79.4 c 193.1,0 289.7,-102.7 289.7,-308.3 v -112.1 h -275.6 v 149.5 0 c 0,12.4 -4.3,23.3 -12.8,32.7 -8.6,9.4 -19.1,14 -31.6,14 h -49.1 v -413.4 0 h 95.8 c 193,-3.1 289.6,-105.9 289.6,-308.3 v -303.6 c 0,-205.6 -96.6,-308.4 -289.6,-308.4 h -95.8 v -203.2 m 0,425.1 v 0 h 65.5 c 12.4,0 22.9,4.7 31.5,14 v 0 c 8.5,9.3 12.7,20 12.8,32.4 0,0.1 0,0.2 0,0.3 v 343.4 0 0 c 0,12.4 -4.3,23.3 -12.8,32.7 -8.6,9.3 -19.1,14 -31.5,14 h -65.5 v -436.8 m -191.5,745.1 v 0 c 0,-12.5 4.3,-23.4 12.9,-32.7 8.5,-9.3 19,-14 31.5,-14 h 60.7 v 413.4 h -60.7 c -12.5,0 -23,-4.6 -31.5,-14 -1.6,-1.8 -3.1,-3.6 -4.4,-5.5 -5.5,-7.8 -8.3,-16.6 -8.5,-26.3 0,-0.3 0,-0.6 0,-0.9 v -320 0"
         id="path1314" />
    </clipPath>
    <linearGradient
       x1="0"
       y1="0"
       x2="1"
       y2="0"
       gradientUnits="userSpaceOnUse"
       gradientTransform="matrix(0,1882.62,1882.62,0,16314,6763.6)"
       spreadMethod="pad"
       id="linearGradient1330">
      <stop
         style="stop-opacity:1;stop-color:#be6d00"
         offset="0"
         id="stop1320" />
      <stop
         style="stop-opacity:1;stop-color:#be6d00"
         offset="0.26974194"
         id="stop1322" />
      <stop
         style="stop-opacity:1;stop-color:#fff57f"
         offset="0.545194"
         id="stop1324" />
      <stop
         style="stop-opacity:1;stop-color:#de9700"
         offset="0.994382"
         id="stop1326" />
      <stop
         style="stop-opacity:1;stop-color:#de9700"
         offset="1"
         id="stop1328" />
    </linearGradient>
    <clipPath
       clipPathUnits="userSpaceOnUse"
       id="clipPath1344">
      <path
         d="m 16269.6,6763.6 v 0 203.2 -203.2 m 151.9,425.1 h -65.5 65.5 c 12.4,0 22.9,4.7 31.5,14 v 0 0 c -8.6,-9.3 -19.1,-14 -31.5,-14 m -151.9,0 h -63.1 c -12.4,0 -22.9,4.7 -31.5,14 -8.6,9.4 -12.8,20.2 -12.8,32.7 v 0 c 0,-12.5 4.2,-23.3 12.8,-32.7 8.6,-9.3 19.1,-14 31.6,-14 h 63 v 436.8 0 -436.8 m 196.2,46.4 c 0,0.1 0,0.2 0,0.3 v 343.4 0 -343.4 c 0,-0.1 0,-0.2 0,-0.3 m -579.2,40.1 v 0 156.4 h 275.6 v 0 h -275.6 v -156.4 m 854.8,303.6 c 0,202.4 -96.6,305.2 -289.6,308.3 h -95.8 95.8 c 193,-3.1 289.6,-105.9 289.6,-308.3 v 0 m -471.8,308.3 h -60.7 c -12.5,0 -23,4.7 -31.5,14 -8.6,9.3 -12.9,20.2 -12.9,32.7 v 0 c 0,-12.5 4.3,-23.4 12.9,-32.7 8.5,-9.3 19,-14 31.5,-14 h 60.7 v 413.4 -413.4 m -383,46.7 v 0 282.6 c 0,205.6 96.5,308.3 289.6,308.3 h 93.4 v 121.5 h 86.4 v 0 h -86.4 v -121.5 h -93.4 c -193.1,0 -289.6,-102.7 -289.6,-308.3 v -282.6 m 562.9,170.5 v 0 149.5 0 -149.5 m 275.6,112.1 c 0,205.6 -96.6,308.3 -289.7,308.3 h -79.4 79.4 c 193.1,0 289.7,-102.7 289.7,-308.3 v 0 m -560.6,38.3 c 0.2,9.7 3,18.5 8.5,26.3 -5.5,-7.8 -8.3,-16.6 -8.5,-26.3"
         id="path1342" />
    </clipPath>
    <linearGradient
       x1="0"
       y1="0"
       x2="1"
       y2="0"
       gradientUnits="userSpaceOnUse"
       gradientTransform="matrix(0,1882.62,1882.62,0,16314,6763.6)"
       spreadMethod="pad"
       id="linearGradient1358">
      <stop
         style="stop-opacity:1;stop-color:#5c3b10"
         offset="0"
         id="stop1348" />
      <stop
         style="stop-opacity:1;stop-color:#5c3b10"
         offset="0.26974194"
         id="stop1350" />
      <stop
         style="stop-opacity:1;stop-color:#767242"
         offset="0.545194"
         id="stop1352" />
      <stop
         style="stop-opacity:1;stop-color:#684c10"
         offset="0.994382"
         id="stop1354" />
      <stop
         style="stop-opacity:1;stop-color:#684c10"
         offset="1"
         id="stop1356" />
    </linearGradient>
  </defs>
  <g
     inkscape:label="Layer 1"
     inkscape:groupmode="layer"
     id="layer1">
    <g
       id="g1158"
       transform="matrix(0.03527778,0,0,-0.03527778,-478.38787,374.00373)">
      <g
         id="g1160"
         clip-path="url(#clipPath1164)">
        <g
           id="g1166"
           transform="scale(1.09079)">
          <path
             d="m 14956.2,5741.83 c -728.1,0 -1320.7,578.66 -1343.7,1301.17 23.4,722.23 615.8,1300.62 1343.7,1300.62 727.9,0 1320.4,-578.3 1343.8,-1300.62 -23.1,-722.51 -615.7,-1301.17 -1343.8,-1301.17 m -1015.6,1298.79 v 0 c 0,-560.88 454.7,-1015.6 1015.6,-1015.6 561,0 1015.6,454.72 1015.6,1015.6 v 0 0 c 0,560.88 -454.6,1015.6 -1015.6,1015.6 -560.9,0 -1015.6,-454.72 -1015.6,-1015.6 v 0"
             style="fill:url(#linearGradient1178);fill-opacity:1;fill-rule:nonzero;stroke:none"
             id="path1180" />
        </g>
      </g>
    </g>
    <g
       id="g1182"
       transform="matrix(0.03527778,0,0,-0.03527778,-478.38787,374.00373)">
      <g
         id="g1184"
         clip-path="url(#clipPath1188)">
        <g
           id="g1190"
           transform="scale(1.09085)">
          <path
             d="m 14955.3,5695.45 c -742.7,0 -1344.8,602.01 -1344.8,1344.73 v 0 c 0,-7.06 0.4,-13.93 0.5,-20.9 0.2,7.79 0.4,15.49 0.6,23.29 23.1,-722.47 615.6,-1301.1 1343.7,-1301.1 728,0 1320.6,578.63 1343.7,1301.1 0.2,-7.71 0.4,-15.5 0.5,-23.29 0.1,6.97 0.5,13.84 0.5,20.9 v 0 c 0,-742.72 -602,-1344.73 -1344.7,-1344.73"
             style="fill:url(#linearGradient1202);fill-opacity:1;fill-rule:nonzero;stroke:none"
             id="path1204" />
        </g>
      </g>
    </g>
    <g
       id="g1206"
       transform="matrix(0.03527778,0,0,-0.03527778,-478.38787,374.00373)">
      <g
         id="g1208"
         clip-path="url(#clipPath1212)">
        <g
           id="g1214"
           transform="scale(1.09085)">
          <path
             d="m 16300,7040.18 c 0,7.7 -0.4,15.31 -0.6,23.01 0,-6.87 -0.2,-13.75 -0.4,-20.62 -23.4,722.27 -615.9,1300.54 -1343.7,1300.54 -727.9,0 -1320.3,-578.36 -1343.7,-1300.54 -0.2,6.87 -0.4,13.75 -0.5,20.62 -0.1,-7.7 -0.6,-15.31 -0.6,-23.01 0,742.72 602.1,1344.73 1344.8,1344.73 742.7,0 1344.7,-602.01 1344.7,-1344.73"
             style="fill:url(#linearGradient1226);fill-opacity:1;fill-rule:nonzero;stroke:none"
             id="path1228" />
        </g>
      </g>
    </g>
    <g
       id="g1230"
       transform="matrix(0.03527778,0,0,-0.03527778,-478.38787,374.00373)">
      <g
         id="g1232"
         clip-path="url(#clipPath1236)">
        <g
           id="g1238"
           transform="scale(1.09085)">
          <path
             d="m 16299.5,7019.28 c -0.1,7.79 -0.3,15.58 -0.5,23.29 0.2,6.87 0.4,13.75 0.4,20.62 0.2,-7.7 0.6,-15.31 0.6,-23.01 v 0 c 0,-7.06 -0.4,-13.93 -0.5,-20.9 m -2688.5,0 c -0.1,6.97 -0.5,13.84 -0.5,20.9 v 0 c 0,7.7 0.5,15.31 0.6,23.01 0.1,-6.87 0.3,-13.75 0.5,-20.62 -0.2,-7.8 -0.4,-15.5 -0.6,-23.29"
             style="fill:url(#linearGradient1250);fill-opacity:1;fill-rule:nonzero;stroke:none"
             id="path1252" />
        </g>
      </g>
    </g>
    <g
       id="g1254"
       transform="matrix(0.03527778,0,0,-0.03527778,-478.38787,374.00373)">
      <g
         id="g1256"
         clip-path="url(#clipPath1260)">
        <g
           id="g1262"
           transform="scale(1.09948)">
          <path
             d="m 14837.9,5522.77 c -806.2,0 -1462.2,655.85 -1462.2,1462.14 0,806.29 656,1462.14 1462.2,1462.14 806.2,0 1462.1,-655.85 1462.1,-1462.14 0,-806.29 -655.9,-1462.14 -1462.1,-1462.14 m -1334.2,1462.14 v 0 c 0,-736.89 597.3,-1334.17 1334.2,-1334.17 736.9,0 1334.1,597.28 1334.1,1334.17 v 0 0 0 c 0,736.89 -597.2,1334.17 -1334.1,1334.17 -736.9,0 -1334.2,-597.28 -1334.2,-1334.17 v 0 0"
             style="fill:url(#linearGradient1274);fill-opacity:1;fill-rule:nonzero;stroke:none"
             id="path1276" />
        </g>
      </g>
    </g>
    <g
       id="g1278"
       transform="matrix(0.0377056,0,0,-0.0377056,-478.38787,374.00373)">
      <path
         d="m 16300,7185.29 c 0,-572.4 -464,-1036.47 -1036.5,-1036.47 -572.4,0 -1036.4,464.07 -1036.4,1036.47 0,572.41 464,1036.47 1036.4,1036.47 572.5,0 1036.5,-464.06 1036.5,-1036.47"
         style="fill:#3a2000;fill-opacity:1;fill-rule:nonzero;stroke:none"
         id="path1280" />
    </g>
    <g
       id="g1282"
       transform="matrix(0.03527778,0,0,-0.03527778,-478.38787,374.00373)">
      <g
         id="g1284"
         clip-path="url(#clipPath1288)">
        <g
           id="g1290"
           transform="scale(1.06882)">
          <path
             d="m 15263.5,6148.82 c -572.4,0 -1036.4,464.07 -1036.4,1036.47 v 0 c 0,-572.4 464,-1036.47 1036.4,-1036.47 572.5,0 1036.5,464.07 1036.5,1036.47 v 0 c 0,-572.4 -464,-1036.47 -1036.5,-1036.47"
             style="fill:url(#linearGradient1302);fill-opacity:1;fill-rule:nonzero;stroke:none"
             id="path1304" />
        </g>
      </g>
    </g>
    <g
       id="g1306"
       transform="matrix(0.0377056,0,0,-0.0377056,-478.38787,374.00373)">
      <path
         d="m 15263.5,6148.82 c -572.4,0 -1036.4,464.07 -1036.4,1036.47 0,572.41 464,1036.47 1036.4,1036.47 572.5,0 1036.5,-464.06 1036.5,-1036.47 0,-572.4 -464,-1036.47 -1036.5,-1036.47 m 0,2032.33 c -549.1,0 -995.8,-446.75 -995.8,-995.86 0,-549.1 446.7,-995.86 995.8,-995.86 549.1,0 995.9,446.76 995.9,995.86 0,549.11 -446.8,995.86 -995.9,995.86"
         style="fill:#271c10;fill-opacity:1;fill-rule:nonzero;stroke:none"
         id="path1308" />
    </g>
    <g
       id="g1310"
       transform="matrix(0.03527778,0,0,-0.03527778,-478.38787,374.00373)">
      <g
         id="g1312"
         clip-path="url(#clipPath1316)">
        <g
           id="g1318"
           transform="scale(1.02708)">
          <path
             d="m 15924.8,6585.27 h -84.2 v 197.84 h -90.9 c -188,0 -282,100.09 -282,300.27 v 152.28 h 268.4 v -191.03 0 c 0,-12.17 4.1,-22.68 12.4,-31.84 8.4,-9.05 18.6,-13.63 30.7,-13.63 h 61.4 v 425.29 0 h -90.9 c -188,0 -282,100.09 -282,300.17 v 275.15 c 0,200.18 94,300.17 282,300.17 h 90.9 v 118.29 h 84.2 v -118.29 h 77.3 c 188,0 282,-99.99 282,-300.17 v -109.15 h -268.3 v 145.56 0 c 0,12.07 -4.2,22.69 -12.5,31.84 -8.3,9.15 -18.6,13.63 -30.7,13.63 h -47.8 v -402.5 0 h 93.2 c 187.9,-3.02 282,-103.11 282,-300.17 v -295.6 c 0,-200.18 -94.1,-300.27 -282,-300.27 h -93.2 v -197.84 m 0,413.89 v 0 h 63.7 c 12.1,0 22.3,4.58 30.7,13.63 v 0 c 8.3,9.06 12.4,19.48 12.5,31.55 0,0.1 0,0.2 0,0.29 v 334.35 0 0 c 0,12.07 -4.2,22.68 -12.5,31.84 -8.4,9.05 -18.6,13.63 -30.7,13.63 h -63.7 v -425.29 m -186.5,725.46 v 0 c 0,-12.17 4.2,-22.78 12.6,-31.84 8.2,-9.05 18.5,-13.63 30.6,-13.63 h 59.1 v 402.5 h -59.1 c -12.1,0 -22.4,-4.48 -30.6,-13.63 -1.6,-1.75 -3.1,-3.5 -4.3,-5.36 -5.4,-7.59 -8.1,-16.16 -8.3,-25.6 0,-0.3 0,-0.59 0,-0.88 v -311.56 0"
             style="fill:url(#linearGradient1330);fill-opacity:1;fill-rule:nonzero;stroke:none"
             id="path1332" />
        </g>
      </g>
    </g>
    <g
       id="g1334"
       transform="matrix(0.03632729,0,0,-0.03632729,-478.38787,374.00373)">
      <path
         d="m 15883.5,6525.96 h -83.9 c -23.3,0 -42.2,18.94 -42.2,42.25 v 155.18 h -48.5 c -211.6,0 -323.5,118.09 -323.5,341.63 v 151.89 c 0,23.31 18.9,42.24 42.3,42.24 h 267.6 c 23.3,0 42.1,-18.93 42.1,-42.24 v -190.53 c 0,-1.36 0,-1.75 0.9,-3.21 h 19.1 v 339.89 h -48.5 c -211.6,0 -323.5,118.09 -323.5,341.54 v 274.44 c 0,223.55 111.9,341.63 323.5,341.63 h 48.5 v 75.75 c 0,23.3 18.9,42.15 42.2,42.15 h 83.9 c 23.3,0 42.2,-18.85 42.2,-42.15 v -75.75 h 34.9 c 211.7,0 323.5,-118.08 323.5,-341.63 v -108.87 c 0,-23.3 -18.9,-42.14 -42.2,-42.14 h -267.6 c -23.3,0 -42.3,18.84 -42.3,42.14 v 145.19 c 0,1.16 0,1.74 -0.8,3.2 h -5.5 v -317.17 h 51.5 c 211.1,-3.39 322.8,-121.48 322.8,-341.53 v -294.84 c 0,-223.54 -111.9,-341.63 -323.5,-341.63 h -50.8 v -155.18 c 0,-23.31 -18.9,-42.25 -42.2,-42.25 m -83.9,42.25 v 0 h 83.9 v 197.33 h 93 c 187.4,0 281.3,99.83 281.3,299.48 v 294.84 0 0 c 0,196.55 -93.9,296.38 -281.3,299.39 h -93 v 401.46 h 47.7 c 12.1,0 22.3,-4.47 30.7,-13.6 8.2,-9.13 12.4,-19.71 12.4,-31.75 v -145.19 h 267.6 v 108.87 0 c 0,199.66 -93.8,299.39 -281.3,299.39 h -77.1 v 117.99 0 h -83.9 v -117.99 h -90.7 c -187.5,0 -281.2,-99.73 -281.2,-299.39 v -274.44 0 0 c 0,-199.56 93.7,-299.39 281.2,-299.39 h 90.7 v -424.19 h -61.2 c -12.1,0 -22.3,4.57 -30.7,13.6 -8.3,9.13 -12.4,19.62 -12.4,31.76 v 190.53 0 h -267.6 v -151.89 0 c 0,-199.65 93.7,-299.48 281.2,-299.48 h 90.7 v -197.33 m 147.5,412.81 h -63.6 v 424.19 h 63.6 c 12,0 22.2,-4.57 30.6,-13.6 8.2,-9.13 12.4,-19.71 12.4,-31.75 v -333.48 c 0,-0.1 0,-0.2 0,-0.29 -0.1,-12.05 -4.2,-22.44 -12.4,-31.47 v 0 c -8.4,-9.03 -18.6,-13.6 -30.6,-13.6 m -21.4,382.04 v -339.99 h 20.8 c 1.5,1.56 1.5,2.04 1.5,3.31 v 333.48 c 0,1.16 0,1.74 -0.9,3.2 h -21.4 m -126.1,296.19 h -59 c -12.1,0 -22.3,4.56 -30.5,13.6 -8.4,9.03 -12.6,19.61 -12.6,31.75 v 310.76 c 0,0.29 0,0.58 0,0.87 0.2,9.42 2.9,17.96 8.3,25.54 1.2,1.85 2.7,3.59 4.3,5.34 8.2,9.13 18.4,13.6 30.5,13.6 h 59 v -401.46 m -58.5,359.31 c -1.4,-1.55 -1.4,-2.04 -1.4,-3.2 V 7704.6 c 0,-1.26 0,-1.75 0.6,-3.11 l 0.3,-0.1 h 16.8 v 317.17 h -16.3"
         style="fill:#271c10;fill-opacity:1;fill-rule:nonzero;stroke:none"
         id="path1336" />
    </g>
    <g
       id="g1338"
       transform="matrix(0.03527778,0,0,-0.03527778,-478.38787,374.00373)">
      <g
         id="g1340"
         clip-path="url(#clipPath1344)">
        <g
           id="g1346"
           transform="scale(1.02708)">
          <path
             d="m 15840.6,6585.27 v 0 197.84 -197.84 m 147.9,413.89 h -63.7 63.7 c 12.1,0 22.3,4.58 30.7,13.63 v 0 0 c -8.4,-9.05 -18.6,-13.63 -30.7,-13.63 m -147.9,0 h -61.4 c -12.1,0 -22.3,4.58 -30.7,13.63 -8.3,9.16 -12.4,19.67 -12.4,31.84 v 0 c 0,-12.17 4.1,-22.68 12.4,-31.84 8.4,-9.05 18.6,-13.63 30.8,-13.63 h 61.3 v 425.29 0 -425.29 m 191.1,45.18 c 0,0.1 0,0.2 0,0.29 v 334.35 0 -334.35 c 0,-0.09 0,-0.19 0,-0.29 m -564,39.04 v 0 152.28 h 268.4 v 0 h -268.4 v -152.28 m 832.3,295.6 c 0,197.06 -94.1,297.15 -282,300.17 h -93.2 93.2 c 187.9,-3.02 282,-103.11 282,-300.17 v 0 m -459.4,300.17 h -59.1 c -12.1,0 -22.4,4.58 -30.6,13.63 -8.4,9.06 -12.6,19.67 -12.6,31.84 v 0 c 0,-12.17 4.2,-22.78 12.6,-31.84 8.2,-9.05 18.5,-13.63 30.6,-13.63 h 59.1 v 402.5 -402.5 m -372.9,45.47 v 0 275.15 c 0,200.18 94,300.17 282,300.17 h 90.9 v 118.29 h 84.2 v 0 h -84.2 v -118.29 h -90.9 c -188,0 -282,-99.99 -282,-300.17 v -275.15 m 548.1,166 v 0 145.56 0 -145.56 m 268.3,109.15 c 0,200.18 -94,300.17 -282,300.17 h -77.3 77.3 c 188,0 282,-99.99 282,-300.17 v 0 m -545.8,37.29 c 0.2,9.44 2.9,18.01 8.3,25.6 -5.4,-7.59 -8.1,-16.16 -8.3,-25.6"
             style="fill:url(#linearGradient1358);fill-opacity:1;fill-rule:nonzero;stroke:none"
             id="path1360" />
        </g>
      </g>
    </g>
    <g
       id="g1362"
       transform="matrix(0.03888599,0,0,-0.03888599,-478.38787,374.00373)">
      <path
         d="m 14800.3,8466.94 c -826.9,0 -1499.7,-672.79 -1499.7,-1499.72 0,-826.93 672.8,-1499.72 1499.7,-1499.72 826.9,0 1499.7,672.79 1499.7,1499.72 0,826.93 -672.8,1499.72 -1499.7,1499.72 z m 0,-41.28 c 804.2,0 1458.4,-654.29 1458.4,-1458.44 0,-804.24 -654.2,-1458.44 -1458.4,-1458.44 -804.2,0 -1458.5,654.2 -1458.5,1458.44 0,804.15 654.3,1458.44 1458.5,1458.44"
         style="fill:#340041;fill-opacity:1;fill-rule:nonzero;stroke:none"
         id="path1364" />
    </g>
    <g
       id="g1366"
       transform="matrix(0.0372551,0,0,-0.0372551,-478.38787,374.00373)">
      <path
         d="m 16300,8431.24 v 0 c -52.9,-17.33 -94.4,-58.81 -111.6,-111.74 -17.4,52.93 -58.8,94.41 -111.8,111.74 53,17.23 94.4,58.71 111.8,111.64 17.2,-52.93 58.7,-94.41 111.6,-111.64"
         style="fill:#ffffff;fill-opacity:1;fill-rule:nonzero;stroke:none"
         id="path1368" />
    </g>
    <g
       id="g1370"
       transform="matrix(0.03656366,0,0,-0.03656366,-478.38787,374.00373)">
      <path
         d="m 16300,8524.5 v 0 c -37.2,-12.16 -66.5,-41.39 -78.6,-78.73 -12.2,37.34 -41.4,66.57 -78.8,78.73 37.4,12.16 66.6,41.39 78.8,78.63 12.1,-37.24 41.4,-66.47 78.6,-78.63"
         style="fill:#ffffff;fill-opacity:1;fill-rule:nonzero;stroke:none"
         id="path1372" />
    </g>
  </g>
</svg>
