<?xml version="1.0" encoding="UTF-8" standalone="no"?>
<!-- Created with Inkscape (http://www.inkscape.org/) -->

<svg
   width="210mm"
   height="297mm"
   viewBox="0 0 210 297"
   version="1.1"
   id="svg11353"
   inkscape:version="1.2.2 (1:1.2.2+202212051550+b0a8486541)"
   sodipodi:docname="crown.svg"
   xmlns:inkscape="http://www.inkscape.org/namespaces/inkscape"
   xmlns:sodipodi="http://sodipodi.sourceforge.net/DTD/sodipodi-0.dtd"
   xmlns="http://www.w3.org/2000/svg"
   xmlns:svg="http://www.w3.org/2000/svg">
  <sodipodi:namedview
     id="namedview11355"
     pagecolor="#ffffff"
     bordercolor="#000000"
     borderopacity="0.25"
     inkscape:showpageshadow="2"
     inkscape:pageopacity="0.0"
     inkscape:pagecheckerboard="0"
     inkscape:deskcolor="#d1d1d1"
     inkscape:document-units="mm"
     showgrid="false"
     inkscape:zoom="0.75722503"
     inkscape:cx="397.50403"
     inkscape:cy="561.92015"
     inkscape:window-width="1848"
     inkscape:window-height="1016"
     inkscape:window-x="72"
     inkscape:window-y="27"
     inkscape:window-maximized="1"
     inkscape:current-layer="layer1" />
  <defs
     id="defs11350">
    <clipPath
       clipPathUnits="userSpaceOnUse"
       id="clipPath2736">
      <path
         d="m 17399.5,11541.2 16.6,88.7 c 4.9,26.2 24.9,46.7 51,52.5 63.3,14.2 126.4,29.6 189.3,46.2 35.2,9.2 62.3,37.5 70.4,73 l 267.6,1173 c 13.4,58.7 -55.2,101 -101.6,62.6 l -888,-734.3 -572.8,1061.1 c 79.8,65.1 79.8,187 0,252 l -15.2,12.5 c -59.8,48.8 -145.7,48.8 -205.5,0 l -15.3,-12.5 c -79.8,-65 -79.8,-186.9 0,-252 l -572.8,-1061.1 -888,734.3 c -46.4,38.4 -115,-3.9 -101.6,-62.6 l 277.5,-1216.5 c 2,-8.7 8.7,-15.7 17.4,-18 77.1,-20.9 154.6,-40.3 232.4,-57.7 26.1,-5.8 46.2,-26.3 51.1,-52.5 l 16.5,-88.7 c 9,-48 -34.8,-88.8 -82.2,-77 -46.8,11.6 -93.6,24 -140.2,37 -17.6,4.9 -33.9,-10.6 -29.9,-28.4 l 61.1,-267.8 v 0 c 823.6,-306.2 1729.8,-306.2 2553.4,0 l 61.1,267.8 c 4.1,17.8 -12.3,33.3 -29.9,28.4 -46.6,-13 -93.3,-25.4 -140.2,-37 -47.4,-11.8 -91.2,29 -82.2,77 z"
         id="path2734" />
    </clipPath>
    <linearGradient
       x1="0"
       y1="0"
       x2="1"
       y2="0"
       gradientUnits="userSpaceOnUse"
       gradientTransform="matrix(3364.24,0,0,-3364.24,14631.9,12320.2)"
       spreadMethod="pad"
       id="linearGradient2750">
      <stop
         style="stop-opacity:1;stop-color:#be6d00"
         offset="0"
         id="stop2740" />
      <stop
         style="stop-opacity:1;stop-color:#be6d00"
         offset="0.07054807"
         id="stop2742" />
      <stop
         style="stop-opacity:1;stop-color:#fff57f"
         offset="0.526786"
         id="stop2744" />
      <stop
         style="stop-opacity:1;stop-color:#be6d00"
         offset="0.82386676"
         id="stop2746" />
      <stop
         style="stop-opacity:1;stop-color:#be6d00"
         offset="1"
         id="stop2748" />
    </linearGradient>
    <clipPath
       clipPathUnits="userSpaceOnUse"
       id="clipPath2764">
      <path
         d="m 16314,13785.1 v 0 c -64.9,0 -128.3,-22.6 -178.6,-63.6 l -15.3,-12.5 c -66,-53.8 -104,-133.7 -104,-219 0,-49.5 12.8,-97.2 36.5,-139 l -231.1,-428.1 -258.8,279.9 c -35.1,37.9 -82.7,58.9 -134,58.9 -93.8,0 -172.2,-70.2 -182.4,-163.2 l -32.9,-300.9 -401.7,332.1 c -32.9,27.2 -74.2,42.2 -116.3,42.2 -55.4,0 -109.2,-26 -143.9,-69.5 -34.7,-43.5 -47.4,-99.8 -34.9,-154.5 l 277.5,-1216.5 c 11.9,-52.1 51.4,-93.2 103,-107.2 16.1,-4.3 32.1,-8.6 47.9,-12.7 -22.4,-9.2 -42.4,-24.1 -58,-43.7 -27.5,-34.4 -37.6,-78.8 -27.8,-121.7 l 61.1,-267.8 14.4,-63.2 60.8,-22.6 c 423.3,-157.4 866.9,-237.2 1318.5,-237.2 451.6,0 895.2,79.8 1318.5,237.2 l 60.8,22.6 14.4,63.2 61.1,267.8 c 9.8,42.9 -0.3,87.3 -27.7,121.7 -15.7,19.6 -35.7,34.5 -58.1,43.7 1.3,0.3 2.6,0.7 3.9,1 78.6,20.6 138.8,82.9 156.9,162.5 l 267.6,1172.9 c 12.5,54.7 -0.2,111 -34.8,154.5 -34.8,43.5 -88.6,69.5 -144,69.5 -42.1,0 -83.4,-15 -116.3,-42.2 l -401.7,-332.1 -32.9,300.9 c -10.2,93 -88.6,163.2 -182.4,163.2 -51.3,0 -98.9,-21 -134,-58.9 l -258.8,-279.9 -231.1,428.1 c 23.7,41.8 36.5,89.5 36.5,139.1 0,85.2 -37.9,165.1 -104,219 l -15.3,12.4 c -50.3,41 -113.7,63.6 -178.6,63.6 z m 0,-120 c 36.4,0 72.8,-12.2 102.7,-36.6 l 15.3,-12.5 c 79.8,-65 79.8,-186.9 0,-252 l 348.7,-645.9 372.7,403.2 c 13,14 29.6,20.4 45.9,20.4 30.1,0 59.3,-21.5 63.1,-56.3 l 57.2,-522.1 573.2,473.9 c 12.3,10.2 26.3,14.7 39.8,14.7 37.3,0 71.7,-34.2 61.8,-77.3 l -267.6,-1173 c -8.1,-35.5 -35.2,-63.8 -70.4,-73 -62.9,-16.6 -126,-32 -189.3,-46.2 -26.1,-5.8 -46.1,-26.3 -51,-52.5 l -16.6,-88.7 c -7.9,-42.4 25.2,-79 65.6,-79 5.4,0 11,0.6 16.6,2 46.9,11.6 93.6,24 140.2,37 2.2,0.6 4.5,0.9 6.6,0.9 14.8,0 26.8,-13.8 23.3,-29.3 l -61.1,-267.8 c -411.8,-153.1 -844.2,-229.7 -1276.7,-229.7 -432.4,0 -864.9,76.6 -1276.7,229.7 l -61.1,267.8 c -3.5,15.5 8.5,29.3 23.3,29.3 2.2,0 4.4,-0.3 6.6,-0.9 46.6,-13 93.4,-25.4 140.2,-37 5.6,-1.4 11.2,-2 16.6,-2 40.4,0 73.6,36.6 65.6,79 l -16.5,88.7 c -4.9,26.2 -25,46.7 -51.1,52.5 -77.8,17.4 -155.3,36.8 -232.4,57.7 -8.7,2.3 -15.4,9.3 -17.4,18 l -277.5,1216.5 c -9.8,43.1 24.5,77.3 61.8,77.3 13.6,0 27.5,-4.5 39.8,-14.7 l 573.2,-473.9 57.2,522.1 c 3.8,34.8 33,56.3 63.1,56.3 16.3,0 33,-6.4 45.9,-20.4 l 372.7,-403.2 348.7,645.9 c -79.8,65.1 -79.8,187 0,252 l 15.3,12.5 c 29.9,24.4 66.3,36.6 102.7,36.6"
         id="path2762" />
    </clipPath>
    <linearGradient
       x1="0"
       y1="0"
       x2="1"
       y2="0"
       gradientUnits="userSpaceOnUse"
       gradientTransform="matrix(0,2929.8,2929.8,0,16314,10855.3)"
       spreadMethod="pad"
       id="linearGradient2778">
      <stop
         style="stop-opacity:1;stop-color:#549300"
         offset="0"
         id="stop2768" />
      <stop
         style="stop-opacity:1;stop-color:#549300"
         offset="0.0723023"
         id="stop2770" />
      <stop
         style="stop-opacity:1;stop-color:#a6ff31"
         offset="0.5"
         id="stop2772" />
      <stop
         style="stop-opacity:1;stop-color:#3d6b00"
         offset="0.85994529"
         id="stop2774" />
      <stop
         style="stop-opacity:1;stop-color:#3d6b00"
         offset="1"
         id="stop2776" />
    </linearGradient>
    <clipPath
       clipPathUnits="userSpaceOnUse"
       id="clipPath2792">
      <path
         d="m 16314,13040.3 v -338 l 249.8,-473.8 197.1,-35.6 z"
         id="path2790" />
    </clipPath>
    <linearGradient
       x1="0"
       y1="0"
       x2="1"
       y2="0"
       gradientUnits="userSpaceOnUse"
       gradientTransform="matrix(0,847.407,847.407,0,16537.4,12192.9)"
       spreadMethod="pad"
       id="linearGradient2802">
      <stop
         style="stop-opacity:1;stop-color:#ff313f"
         offset="0"
         id="stop2796" />
      <stop
         style="stop-opacity:1;stop-color:#6b0008"
         offset="0.98226038"
         id="stop2798" />
      <stop
         style="stop-opacity:1;stop-color:#6b0008"
         offset="1"
         id="stop2800" />
    </linearGradient>
    <clipPath
       clipPathUnits="userSpaceOnUse"
       id="clipPath2812">
      <path
         d="m 16314,11746 446.9,446.9 -197.1,35.6 -249.8,-249.8 z"
         id="path2810" />
    </clipPath>
    <linearGradient
       x1="0"
       y1="0"
       x2="1"
       y2="0"
       gradientUnits="userSpaceOnUse"
       gradientTransform="matrix(446.876,446.876,446.876,-446.876,16255.8,11804.2)"
       spreadMethod="pad"
       id="linearGradient2822">
      <stop
         style="stop-opacity:1;stop-color:#ff313f"
         offset="0"
         id="stop2816" />
      <stop
         style="stop-opacity:1;stop-color:#ff313f"
         offset="0.09489157"
         id="stop2818" />
      <stop
         style="stop-opacity:1;stop-color:#6b0008"
         offset="1"
         id="stop2820" />
    </linearGradient>
    <clipPath
       clipPathUnits="userSpaceOnUse"
       id="clipPath2832">
      <path
         d="m 15867.1,12192.9 197.1,35.6 249.8,-249.8 V 11746 Z"
         id="path2830" />
    </clipPath>
    <linearGradient
       x1="0"
       y1="0"
       x2="1"
       y2="0"
       gradientUnits="userSpaceOnUse"
       gradientTransform="matrix(-305.225,528.664,528.664,305.225,16293.6,11734.2)"
       spreadMethod="pad"
       id="linearGradient2844">
      <stop
         style="stop-opacity:1;stop-color:#6b0008"
         offset="0"
         id="stop2836" />
      <stop
         style="stop-opacity:1;stop-color:#6b0008"
         offset="0.227679"
         id="stop2838" />
      <stop
         style="stop-opacity:1;stop-color:#ff313f"
         offset="0.92671325"
         id="stop2840" />
      <stop
         style="stop-opacity:1;stop-color:#ff313f"
         offset="1"
         id="stop2842" />
    </linearGradient>
    <clipPath
       clipPathUnits="userSpaceOnUse"
       id="clipPath2854">
      <path
         d="m 16314,13040.3 -446.9,-847.4 197.1,35.6 249.8,473.8 z"
         id="path2852" />
    </clipPath>
    <linearGradient
       x1="0"
       y1="0"
       x2="1"
       y2="0"
       gradientUnits="userSpaceOnUse"
       gradientTransform="matrix(446.886,0,0,-446.886,15867.1,12616.6)"
       spreadMethod="pad"
       id="linearGradient2866">
      <stop
         style="stop-opacity:1;stop-color:#6b0008"
         offset="0"
         id="stop2858" />
      <stop
         style="stop-opacity:1;stop-color:#6b0008"
         offset="0.227679"
         id="stop2860" />
      <stop
         style="stop-opacity:1;stop-color:#ff313f"
         offset="0.92671325"
         id="stop2862" />
      <stop
         style="stop-opacity:1;stop-color:#ff313f"
         offset="1"
         id="stop2864" />
    </linearGradient>
    <clipPath
       clipPathUnits="userSpaceOnUse"
       id="clipPath2884">
      <path
         d="m 15803.5,11521.2 c 0,-55.3 -44.8,-100.1 -100.1,-100.1 -55.3,0 -100.1,44.8 -100.1,100.1 0,55.2 44.8,100.1 100.1,100.1 55.3,0 100.1,-44.9 100.1,-100.1 z"
         id="path2882" />
    </clipPath>
    <linearGradient
       x1="0"
       y1="0"
       x2="1"
       y2="0"
       gradientUnits="userSpaceOnUse"
       gradientTransform="matrix(0,200.161,200.161,0,15703.4,11421.1)"
       spreadMethod="pad"
       id="linearGradient2894">
      <stop
         style="stop-opacity:1;stop-color:#6b0008"
         offset="0"
         id="stop2886" />
      <stop
         style="stop-opacity:1;stop-color:#6b0008"
         offset="0.227679"
         id="stop2888" />
      <stop
         style="stop-opacity:1;stop-color:#ff313f"
         offset="0.92671325"
         id="stop2890" />
      <stop
         style="stop-opacity:1;stop-color:#ff313f"
         offset="1"
         id="stop2892" />
    </linearGradient>
    <clipPath
       clipPathUnits="userSpaceOnUse"
       id="clipPath2908">
      <path
         d="m 17024.7,11521.2 c 0,-55.3 -44.8,-100.1 -100.1,-100.1 -55.2,0 -100,44.8 -100,100.1 0,55.2 44.8,100.1 100,100.1 55.3,0 100.1,-44.9 100.1,-100.1 z"
         id="path2906" />
    </clipPath>
    <linearGradient
       x1="0"
       y1="0"
       x2="1"
       y2="0"
       gradientUnits="userSpaceOnUse"
       gradientTransform="matrix(0,200.161,200.161,0,16924.6,11421.1)"
       spreadMethod="pad"
       id="linearGradient2920">
      <stop
         style="stop-opacity:1;stop-color:#6b0008"
         offset="0"
         id="stop2912" />
      <stop
         style="stop-opacity:1;stop-color:#6b0008"
         offset="0.227679"
         id="stop2914" />
      <stop
         style="stop-opacity:1;stop-color:#ff313f"
         offset="0.92671325"
         id="stop2916" />
      <stop
         style="stop-opacity:1;stop-color:#ff313f"
         offset="1"
         id="stop2918" />
    </linearGradient>
    <clipPath
       clipPathUnits="userSpaceOnUse"
       id="clipPath2938">
      <path
         d="m 16414.1,11421.1 c 0,-55.3 -44.8,-100.1 -100.1,-100.1 -55.3,0 -100.1,44.8 -100.1,100.1 0,55.3 44.8,100.1 100.1,100.1 55.3,0 100.1,-44.8 100.1,-100.1 z"
         id="path2936" />
    </clipPath>
    <linearGradient
       x1="0"
       y1="0"
       x2="1"
       y2="0"
       gradientUnits="userSpaceOnUse"
       gradientTransform="matrix(0,200.161,200.161,0,16314,11321)"
       spreadMethod="pad"
       id="linearGradient2950">
      <stop
         style="stop-opacity:1;stop-color:#6b0008"
         offset="0"
         id="stop2942" />
      <stop
         style="stop-opacity:1;stop-color:#6b0008"
         offset="0.227679"
         id="stop2944" />
      <stop
         style="stop-opacity:1;stop-color:#ff313f"
         offset="0.92671325"
         id="stop2946" />
      <stop
         style="stop-opacity:1;stop-color:#ff313f"
         offset="1"
         id="stop2948" />
    </linearGradient>
  </defs>
  <g
     inkscape:label="Layer 1"
     inkscape:groupmode="layer"
     id="layer1">
    <g
       id="g2720"
       transform="matrix(0.0380993,0,0,-0.0380993,-478.38642,542.59676)">
      <path
         d="m 16203.2,10473.8 h -2194.8 l -96.8,517.3 H 16300 l -96.8,-517.3"
         style="fill:#be6d00;fill-opacity:1;fill-rule:nonzero;stroke:none"
         id="path2722" />
    </g>
    <path
       d="m 61.162531,103.93168 2.515305,-22.958782 c 0.208139,-1.894417 2.550584,-2.667001 3.845278,-1.266473 l 19.402779,20.986755 -9.736667,14.12875 -11.070167,-4.72723 -4.956528,-6.16302"
       style="fill:#be6d00;fill-opacity:1;fill-rule:nonzero;stroke:none;stroke-width:0.0352778"
       id="path2724" />
    <g
       id="g2726"
       transform="matrix(0.0375151,0,0,-0.0375151,-478.38642,542.59676)">
      <path
         d="m 16300,11693.1 -67,611.9 c -5.6,50.6 -68,71.2 -102.5,33.8 l -517.2,-559.4 259.6,-376.6 295,126 132.1,164.3"
         style="fill:#be6d00;fill-opacity:1;fill-rule:nonzero;stroke:none"
         id="path2728" />
    </g>
    <g
       id="g2730"
       transform="matrix(0.03527778,0,0,-0.03527778,-478.38642,542.59676)">
      <g
         id="g2732"
         clip-path="url(#clipPath2736)">
        <g
           id="g2738"
           transform="scale(1.10405)">
          <path
             d="m 15759.7,10453.5 15.1,80.3 c 4.4,23.8 22.5,42.4 46.1,47.7 57.4,12.8 114.5,26.8 171.5,41.7 31.9,8.4 56.4,34.1 63.8,66.2 l 242.3,1062.4 c 12.2,53.2 -49.9,91.5 -92,56.7 l -804.3,-665 -518.8,961.1 c 72.3,58.9 72.3,169.3 0,228.2 l -13.8,11.3 c -54.1,44.2 -131.9,44.2 -186.1,0 l -13.9,-11.3 c -72.2,-58.9 -72.2,-169.3 0,-228.2 l -518.8,-961.1 -804.3,665 c -42,34.8 -104.2,-3.5 -92,-56.7 l 251.3,-1101.8 c 1.8,-7.9 7.9,-14.2 15.8,-16.4 69.8,-18.9 140,-36.4 210.5,-52.1 23.6,-5.3 41.8,-23.9 46.3,-47.7 l 14.9,-80.3 c 8.2,-43.5 -31.5,-80.4 -74.4,-69.7 -42.4,10.5 -84.8,21.7 -127,33.5 -16,4.4 -30.7,-9.6 -27.1,-25.8 l 55.3,-242.5 v 0 c 746,-277.38 1566.8,-277.38 2312.8,0 l 55.3,242.5 c 3.8,16.2 -11.1,30.2 -27,25.8 -42.3,-11.8 -84.5,-23 -127,-33.5 -43,-10.7 -82.6,26.2 -74.5,69.7"
             style="fill:url(#linearGradient2750);fill-opacity:1;fill-rule:nonzero;stroke:none"
             id="path2752" />
        </g>
      </g>
    </g>
    <g
       id="g2754"
       transform="matrix(0.03896642,0,0,-0.03896642,-478.38642,542.59676)">
      <path
         d="m 14769.7,12371.5 c -32.9,0 -65.9,-11 -93,-33.1 l -13.8,-11.3 c -72.3,-58.9 -72.3,-169.2 0,-228.1 l -518.6,-960.7 -803.9,664.8 c -11.2,9.2 -23.8,13.3 -36.1,13.3 -33.7,0 -64.8,-31 -55.9,-70 l 251.2,-1101.3 c 1.8,-7.9 7.9,-14.3 15.8,-16.4 69.8,-18.9 139.9,-36.4 210.4,-52.1 23.6,-5.3 41.8,-23.9 46.2,-47.6 l 15,-80.3 c 7.2,-38.3 -22.9,-71.6 -59.4,-71.6 -4.9,0 -10,0.6 -15.1,1.9 -42.3,10.5 -84.7,21.7 -126.9,33.5 -2,0.5 -4,0.8 -6,0.8 -13.4,0 -24.2,-12.5 -21.1,-26.5 l 55.4,-242.5 c 372.8,-138.6 764.3,-207.92 1155.8,-207.92 391.6,0 783,69.32 1155.9,207.92 l 55.3,242.4 c 3.1,14.1 -7.7,26.6 -21.1,26.6 -2,0 -4,-0.3 -6,-0.8 -42.2,-11.8 -84.5,-23 -126.9,-33.5 -5.1,-1.3 -10.1,-1.9 -15.1,-1.9 -36.5,0 -66.5,33.3 -59.4,71.6 l 15.1,80.3 c 4.4,23.7 22.5,42.3 46.2,47.6 57.3,12.8 114.4,26.8 171.3,41.7 31.9,8.4 56.4,34 63.8,66.2 l 242.2,1061.9 c 9,39 -22.1,70 -55.9,70 -12.2,0 -24.9,-4.1 -36,-13.3 l -804,-664.8 -518.6,960.7 c 72.3,58.9 72.3,169.2 0,228.1 l -13.7,11.3 c -27.2,22.1 -60.1,33.1 -93.1,33.1 z m 0,-18.1 c 29.6,0 58.6,-10.3 81.6,-29 l 13.8,-11.3 c 30.2,-24.6 47.6,-61.1 47.6,-100 0,-39 -17.4,-75.5 -47.6,-100.1 -6.7,-5.5 -8.6,-15 -4.5,-22.6 l 518.6,-960.7 c 2.5,-4.7 7.1,-8.1 12.5,-9.1 1.1,-0.3 2.2,-0.4 3.4,-0.4 4.2,0 8.3,1.5 11.5,4.2 l 804,664.7 c 7.4,6.1 15.6,9.2 24.5,9.2 11.9,0 23.6,-5.7 31.2,-15.3 5.2,-6.4 10.6,-17.3 7.1,-32.6 l -242.3,-1061.9 c -5.9,-25.8 -25.2,-46 -50.7,-52.7 -58.4,-15.3 -115.8,-29.3 -170.7,-41.6 -30.7,-6.8 -54.3,-31.1 -60.1,-61.9 l -15,-80.3 c -4.2,-23 1.7,-46.5 16.7,-64.4 15,-18.1 37.1,-28.6 60.5,-28.6 6.6,0 13.1,0.8 19.4,2.4 41,10.2 83.9,21.5 128.6,33.8 1.5,0 2.5,-1.1 2.8,-1.4 1,-1.3 0.7,-2.6 0.6,-3 l -53.1,-232.9 c -366.2,-135 -749.9,-203.41 -1140.4,-203.41 -390.5,0 -774.1,68.41 -1140.4,203.41 l -53.1,232.9 c -0.1,0.4 -0.4,1.7 0.6,3 0.3,0.3 1.1,1.3 3.5,1.3 l 0.5,-0.1 c 43.5,-12.1 86.4,-23.4 127.4,-33.6 6.3,-1.6 12.8,-2.4 19.4,-2.4 23.4,0 45.5,10.5 60.5,28.6 15,17.9 21,41.4 16.7,64.4 l -15,80.3 c -5.7,30.8 -29.4,55.1 -60.1,61.9 -66.9,15 -137.5,32.5 -209.6,52 -1.4,0.4 -2.5,1.5 -2.8,2.9 l -251.3,1101.3 c -3.5,15.3 1.9,26.2 7.1,32.7 7.6,9.5 19.3,15.2 31.2,15.2 8.8,0 17.3,-3.2 24.6,-9.2 l 803.9,-664.7 c 3.3,-2.7 7.3,-4.2 11.5,-4.2 1.2,0 2.4,0.1 3.4,0.4 5.4,1 10,4.4 12.5,9.1 l 518.6,960.7 c 4.1,7.6 2.3,17.1 -4.5,22.6 -30.2,24.6 -47.5,61.1 -47.5,100.1 0,38.9 17.3,75.4 47.5,100 l 13.8,11.3 c 23,18.7 52,29 81.6,29"
         style="fill:#fff59c;fill-opacity:1;fill-rule:nonzero;stroke:none"
         id="path2756" />
    </g>
    <g
       id="g2758"
       transform="matrix(0.03527778,0,0,-0.03527778,-478.38642,542.59676)">
      <g
         id="g2760"
         clip-path="url(#clipPath2764)">
        <g
           id="g2766"
           transform="scale(1.11147)">
          <path
             d="m 14677.8,12402.6 v 0 c -58.4,0 -115.4,-20.3 -160.7,-57.2 l -13.7,-11.3 c -59.4,-48.5 -93.6,-120.3 -93.6,-197 0,-44.6 11.5,-87.5 32.8,-125.1 l -207.9,-385.2 -232.8,251.8 c -31.6,34.2 -74.4,53 -120.6,53 -84.4,0 -154.9,-63.1 -164.1,-146.8 l -29.6,-270.7 -361.4,298.8 c -29.6,24.5 -66.8,38 -104.6,38 -49.9,0 -98.3,-23.4 -129.5,-62.6 -31.2,-39.1 -42.7,-89.7 -31.4,-139 l 249.7,-1094.5 c 10.7,-46.9 46.2,-83.8 92.6,-96.4 14.5,-3.9 28.9,-7.7 43.1,-11.5 -20.1,-8.2 -38.1,-21.6 -52.2,-39.2 -24.7,-31 -33.8,-70.9 -25,-109.6 l 55,-240.9 13,-56.8 54.7,-20.37 c 380.8,-141.61 779.9,-213.43 1186.2,-213.43 406.3,0 805.4,71.82 1186.3,213.43 l 54.7,20.37 12.9,56.8 55,240.9 c 8.8,38.7 -0.2,78.6 -24.9,109.6 -14.1,17.6 -32.1,31 -52.3,39.2 1.2,0.3 2.4,0.6 3.5,1 70.8,18.5 124.9,74.5 141.2,146.1 l 240.8,1055.3 c 11.2,49.3 -0.2,99.9 -31.3,139 -31.4,39.2 -79.8,62.6 -129.6,62.6 -37.9,0 -75,-13.5 -104.6,-38 l -361.5,-298.8 -29.6,270.7 c -9.1,83.7 -79.7,146.8 -164.1,146.8 -46.1,0 -88.9,-18.8 -120.5,-53 l -232.9,-251.8 -207.9,385.2 c 21.3,37.6 32.8,80.5 32.8,125.1 0,76.7 -34,148.5 -93.5,197 l -13.8,11.2 c -45.2,36.9 -102.3,57.2 -160.7,57.3 z m 0,-108 c 32.8,0 65.5,-11 92.4,-32.9 l 13.8,-11.2 c 71.8,-58.6 71.8,-168.2 0,-226.8 l 313.7,-581.1 335.3,362.7 c 11.7,12.6 26.7,18.3 41.3,18.3 27.1,0 53.4,-19.2 56.8,-50.6 l 51.5,-469.8 515.7,426.5 c 11.1,9.2 23.6,13.2 35.8,13.2 33.6,0 64.5,-30.8 55.6,-69.6 L 15948.9,10618 c -7.3,-31.9 -31.6,-57.4 -63.3,-65.7 -56.6,-14.9 -113.4,-28.8 -170.3,-41.5 -23.5,-5.2 -41.5,-23.8 -45.9,-47.3 l -14.9,-79.8 c -7.1,-38.1 22.6,-71.1 59,-71.1 4.8,0 9.9,0.6 14.9,1.8 42.2,10.5 84.2,21.6 126.2,33.3 1.9,0.6 4,0.8 5.9,0.8 13.3,0 24.1,-12.4 21,-26.4 l -55,-240.9 c -370.5,-137.74 -759.5,-206.64 -1148.7,-206.64 -389,0 -778.1,68.9 -1148.6,206.64 l -55,240.9 c -3.2,14 7.6,26.4 21,26.4 1.9,0 3.9,-0.2 5.9,-0.8 41.9,-11.7 84,-22.8 126.1,-33.3 5.1,-1.2 10.1,-1.8 15,-1.8 36.3,0 66.2,33 59,71.1 l -14.8,79.8 c -4.5,23.5 -22.5,42.1 -46,47.3 -70,15.6 -139.7,33 -209.1,51.8 -7.8,2.1 -13.9,8.4 -15.7,16.3 l -249.6,1094.4 c -8.9,38.8 22,69.6 55.6,69.6 12.2,0 24.7,-4 35.8,-13.2 l 515.7,-426.5 51.4,469.8 c 3.5,31.4 29.7,50.6 56.8,50.6 14.7,0 29.7,-5.7 41.3,-18.3 l 335.3,-362.7 313.8,581.1 c -71.8,58.6 -71.8,168.2 0,226.8 l 13.7,11.2 c 26.9,21.9 59.7,32.9 92.4,32.9"
             style="fill:url(#linearGradient2778);fill-opacity:1;fill-rule:nonzero;stroke:none"
             id="path2780" />
        </g>
      </g>
    </g>
    <g
       id="g2782"
       transform="matrix(0.03584857,0,0,-0.03584857,-478.38642,542.59676)">
      <path
         d="m 16054.2,12500 -245.8,-466.2 245.8,-245.9 245.8,245.9 -245.8,466.2"
         style="fill:#ff313f;fill-opacity:1;fill-rule:nonzero;stroke:none"
         id="path2784" />
    </g>
    <g
       id="g2786"
       transform="matrix(0.03527778,0,0,-0.03527778,-478.38642,542.59676)">
      <g
         id="g2788"
         clip-path="url(#clipPath2792)">
        <g
           id="g2794"
           transform="scale(1.02828)">
          <path
             d="M 15865.4,12681.7 V 12353 l 242.9,-460.7 191.7,-34.7 -434.6,824.1"
             style="fill:url(#linearGradient2802);fill-opacity:1;fill-rule:nonzero;stroke:none"
             id="path2804" />
        </g>
      </g>
    </g>
    <g
       id="g2806"
       transform="matrix(0.03527778,0,0,-0.03527778,-478.38642,542.59676)">
      <g
         id="g2808"
         clip-path="url(#clipPath2812)">
        <g
           id="g2814"
           transform="scale(1.02828)">
          <path
             d="m 15865.4,11423 434.6,434.6 -191.7,34.7 -242.9,-243 V 11423"
             style="fill:url(#linearGradient2822);fill-opacity:1;fill-rule:nonzero;stroke:none"
             id="path2824" />
        </g>
      </g>
    </g>
    <g
       id="g2826"
       transform="matrix(0.03527778,0,0,-0.03527778,-478.38642,542.59676)">
      <g
         id="g2828"
         clip-path="url(#clipPath2832)">
        <g
           id="g2834"
           transform="scale(1.00086)">
          <path
             d="m 15853.5,12182.4 196.9,35.6 249.6,-249.6 v -232.5 l -446.5,446.5"
             style="fill:url(#linearGradient2844);fill-opacity:1;fill-rule:nonzero;stroke:none"
             id="path2846" />
        </g>
      </g>
    </g>
    <g
       id="g2848"
       transform="matrix(0.03527778,0,0,-0.03527778,-478.38642,542.59676)">
      <g
         id="g2850"
         clip-path="url(#clipPath2854)">
        <g
           id="g2856"
           transform="scale(1.00086)">
          <path
             d="m 16300,13029.1 -446.5,-846.7 196.9,35.6 249.6,473.4 v 337.7"
             style="fill:url(#linearGradient2866);fill-opacity:1;fill-rule:nonzero;stroke:none"
             id="path2868" />
        </g>
      </g>
    </g>
    <g
       id="g2870"
       transform="matrix(0.03638303,0,0,-0.03638303,-478.38642,542.59676)">
      <path
         d="m 15818.5,12688.4 c -16.4,0 -31.4,-9 -39.1,-23.6 l -433.3,-821.6 c -9,-17.2 -5.9,-38.2 7.8,-51.9 l 433.4,-433.3 c 8.2,-8.3 19.4,-13 31.2,-13 11.7,0 23,4.7 31.3,13 l 433.2,433.3 c 13.8,13.7 17,34.7 7.9,51.9 l -433.2,821.6 c -7.7,14.6 -22.8,23.6 -39.2,23.6 z m 0,-44.2 433.3,-821.7 -433.3,-433.3 -433.3,433.3 433.3,821.7"
         style="fill:#2d0006;fill-opacity:1;fill-rule:nonzero;stroke:none"
         id="path2872" />
    </g>
    <g
       id="g2874"
       transform="matrix(0.03584857,0,0,-0.03584857,-478.38642,542.59676)">
      <path
         d="m 16079.7,12451.7 -25.5,380.9 -25.5,-381 -220.3,-417.8 245.8,395.2 245.8,-395.2 -220.3,417.9"
         style="fill:#ffffff;fill-opacity:1;fill-rule:nonzero;stroke:none"
         id="path2876" />
    </g>
    <g
       id="g2878"
       transform="matrix(0.03527778,0,0,-0.03527778,-478.38642,542.59676)">
      <g
         id="g2880"
         clip-path="url(#clipPath2884)">
        <path
           d="m 15803.5,11521.2 c 0,-55.3 -44.8,-100.1 -100.1,-100.1 -55.3,0 -100.1,44.8 -100.1,100.1 0,55.2 44.8,100.1 100.1,100.1 55.3,0 100.1,-44.9 100.1,-100.1"
           style="fill:url(#linearGradient2894);fill-opacity:1;fill-rule:nonzero;stroke:none"
           id="path2896" />
      </g>
    </g>
    <path
       d="m 75.59467,133.41332 c 1.813278,0 3.291417,1.3723 3.488973,3.13619 0.02117,-0.13053 0.04233,-0.26105 0.04233,-0.39511 0,-1.94733 -1.580444,-3.5313 -3.531306,-3.5313 -1.950861,0 -3.531305,1.58397 -3.531305,3.5313 0,0.13406 0.02117,0.26458 0.0388,0.39511 0.201084,-1.76389 1.675695,-3.13619 3.4925,-3.13619"
       style="fill:#ffffff;fill-opacity:1;fill-rule:nonzero;stroke:none;stroke-width:0.0352778"
       id="path2898" />
    <path
       d="m 75.59467,131.01443 c -2.836333,0 -5.139972,2.30717 -5.139972,5.13997 0,2.83633 2.303639,5.13997 5.139972,5.13997 2.832806,0 5.139973,-2.30364 5.139973,-5.13997 0,-2.8328 -2.307167,-5.13997 -5.139973,-5.13997 z m 0,1.60867 c 1.950862,0 3.531306,1.58397 3.531306,3.5313 0,1.95086 -1.580444,3.53131 -3.531306,3.53131 -1.950861,0 -3.531305,-1.58045 -3.531305,-3.53131 0,-1.94733 1.580444,-3.5313 3.531305,-3.5313"
       style="fill:#2d0006;fill-opacity:1;fill-rule:nonzero;stroke:none;stroke-width:0.0352778"
       id="path2900" />
    <g
       id="g2902"
       transform="matrix(0.03527778,0,0,-0.03527778,-478.38642,542.59676)">
      <g
         id="g2904"
         clip-path="url(#clipPath2908)">
        <g
           id="g2910"
           transform="scale(1.04446)">
          <path
             d="m 16300,11030.7 c 0,-52.9 -42.9,-95.8 -95.8,-95.8 -52.9,0 -95.8,42.9 -95.8,95.8 0,53 42.9,95.9 95.8,95.9 52.9,0 95.8,-42.9 95.8,-95.9"
             style="fill:url(#linearGradient2920);fill-opacity:1;fill-rule:nonzero;stroke:none"
             id="path2922" />
        </g>
      </g>
    </g>
    <g
       id="g2924"
       transform="matrix(0.03684623,0,0,-0.03684623,-478.38642,542.59676)">
      <path
         d="m 16204.2,11105.2 c 49.3,0 89.4,-37.3 94.7,-85.1 0.5,3.5 1.1,7 1.1,10.6 0,53 -42.9,95.9 -95.8,95.9 -52.9,0 -95.8,-42.9 -95.8,-95.9 0,-3.6 0.6,-7.1 1.1,-10.6 5.3,47.8 45.4,85.1 94.7,85.1"
         style="fill:#ffffff;fill-opacity:1;fill-rule:nonzero;stroke:none"
         id="path2926" />
    </g>
    <g
       id="g2928"
       transform="matrix(0.03694501,0,0,-0.03694501,-478.38642,542.59676)">
      <path
         d="m 16160.9,11140.4 c -76.7,0 -139.1,-62.4 -139.1,-139.1 0,-76.7 62.4,-139.2 139.1,-139.2 76.7,0 139.1,62.5 139.1,139.2 0,76.7 -62.4,139.1 -139.1,139.1 z m 0,-43.6 c 52.8,0 95.6,-42.7 95.6,-95.5 0,-52.8 -42.8,-95.6 -95.6,-95.6 -52.7,0 -95.5,42.8 -95.5,95.6 0,52.8 42.8,95.5 95.5,95.5"
         style="fill:#2d0006;fill-opacity:1;fill-rule:nonzero;stroke:none"
         id="path2930" />
    </g>
    <g
       id="g2932"
       transform="matrix(0.03527778,0,0,-0.03527778,-478.38642,542.59676)">
      <g
         id="g2934"
         clip-path="url(#clipPath2938)">
        <g
           id="g2940"
           transform="scale(1.007)">
          <path
             d="m 16300,11341.7 c 0,-54.9 -44.5,-99.4 -99.4,-99.4 -54.9,0 -99.4,44.5 -99.4,99.4 0,54.9 44.5,99.4 99.4,99.4 54.9,0 99.4,-44.5 99.4,-99.4"
             style="fill:url(#linearGradient2950);fill-opacity:1;fill-rule:nonzero;stroke:none"
             id="path2952" />
        </g>
      </g>
    </g>
    <g
       id="g2954"
       transform="matrix(0.03552472,0,0,-0.03552472,-478.38642,542.59676)">
      <path
         d="m 16200.6,11418.9 c 51,0 92.6,-38.7 98.3,-88.3 0.5,3.7 1.1,7.3 1.1,11.1 0,54.9 -44.5,99.4 -99.4,99.4 -54.9,0 -99.4,-44.5 -99.4,-99.4 0,-3.8 0.7,-7.4 1.2,-11.1 5.5,49.6 47.2,88.3 98.2,88.3"
         style="fill:#ffffff;fill-opacity:1;fill-rule:nonzero;stroke:none"
         id="path2956" />
    </g>
    <g
       id="g2958"
       transform="matrix(0.0356235,0,0,-0.0356235,-478.38642,542.59676)">
      <path
         d="m 16155.7,11454.6 c -79.5,0 -144.3,-64.8 -144.3,-144.3 0,-79.6 64.8,-144.3 144.3,-144.3 79.5,0 144.3,64.7 144.3,144.3 0,79.5 -64.8,144.3 -144.3,144.3 z m 0,-45.2 c 54.8,0 99.1,-44.4 99.1,-99.1 0,-54.8 -44.3,-99.1 -99.1,-99.1 -54.7,0 -99.1,44.3 -99.1,99.1 0,54.7 44.4,99.1 99.1,99.1"
         style="fill:#2d0006;fill-opacity:1;fill-rule:nonzero;stroke:none"
         id="path2960" />
    </g>
    <g
       id="g2962"
       transform="matrix(0.03932802,0,0,-0.03932802,-478.38642,542.59676)">
      <path
         d="m 14633.9,12406.2 v 0 c -67.6,0 -133.6,-23.5 -186,-66.2 l -13.7,-11.2 c -68.9,-56.1 -108.3,-139.2 -108.3,-228.1 0,-43 9.5,-85.5 27.4,-124.2 l -170,-314.9 -193.4,209.2 c -39.3,42.5 -92.6,65.9 -150.1,65.9 -105,0 -192.8,-78.6 -204.2,-182.7 l -21.4,-194.7 -301.9,249.7 c -36.9,30.4 -83.1,47.2 -130.3,47.2 -62,0 -122.2,-29.1 -161,-77.7 -38.9,-48.8 -53.1,-111.9 -39.2,-173.1 l 249,-1091.2 c 11.4,-50.3 44.6,-91.8 89.5,-114.3 -31.2,-40.4 -42.5,-91.8 -31.1,-141.7 l 54.7,-240.2 13,-56.66 c 3,-13.41 12.6,-24.37 25.6,-29.17 l 54.4,-20.28 c 384.3,-142.89 787,-215.35 1197,-215.35 409.9,0 812.7,72.46 1197,215.35 l 54.5,20.28 c 12.8,4.8 22.4,15.76 25.5,29.17 l 13,56.66 54.8,240.2 c 11.6,50.7 -0.4,103.1 -32.8,143.7 -1.1,1.5 -2.3,2.9 -3.5,4.2 51.7,32.8 89.4,85.1 103.6,147.1 l 240,1052.2 c 14,61.2 -0.4,124.3 -39.2,173 -38.8,48.7 -99,77.8 -161,77.8 -47.2,0 -93.5,-16.8 -130.3,-47.2 l -302,-249.7 -21.3,194.7 c -11.4,104.1 -99.2,182.7 -204.2,182.7 -57.5,0 -110.9,-23.4 -150.2,-65.9 l -193.3,-209.2 -170,314.9 c 18,38.7 27.4,81.2 27.4,124.3 0,88.8 -39.5,171.9 -108.3,228 l -13.7,11.2 c -52.4,42.7 -118.4,66.2 -186,66.2 z m 0,-40.8 c 58.2,0 115.1,-20.2 160.2,-57 l 13.7,-11.2 c 59.3,-48.3 93.3,-119.9 93.3,-196.4 0,-44.5 -11.5,-87.2 -32.7,-124.8 l 207.3,-384 232.1,251.1 c 31.5,34 74.2,52.8 120.2,52.8 84.2,0 154.5,-62.9 163.6,-146.4 l 29.5,-269.9 360.4,297.9 c 29.5,24.4 66.5,37.9 104.3,37.9 49.7,0 97.9,-23.3 129.2,-62.4 31,-39 42.4,-89.5 31.2,-138.6 l -240.1,-1052.1 c -16.2,-71.4 -70.2,-127.2 -140.7,-145.7 -1.2,-0.3 -2.3,-0.6 -3.5,-1 20.1,-8.2 38,-21.5 52.1,-39.1 24.6,-30.9 33.7,-70.7 24.9,-109.2 l -54.8,-240.2 -13,-56.68 -54.5,-20.27 c -379.7,-141.19 -777.6,-212.79 -1182.7,-212.79 -405.1,0 -803,71.6 -1182.7,212.79 l -54.6,20.27 -12.9,56.68 -54.8,240.2 c -8.8,38.5 0.3,78.3 24.9,109.2 14,17.6 32,30.9 52.1,39.1 -14.2,3.8 -28.6,7.6 -43,11.5 -46.3,12.5 -81.7,49.4 -92.4,96.1 l -248.9,1091.3 c -11.2,49 0.2,99.6 31.3,138.5 31.1,39.1 79.4,62.4 129.1,62.4 37.7,0 74.8,-13.5 104.3,-37.9 l 360.3,-297.9 29.5,269.9 c 9.2,83.5 79.5,146.4 163.7,146.4 46,0 88.7,-18.8 120.2,-52.8 l 232.1,-251.1 207.3,384 c -21.3,37.6 -32.7,80.3 -32.7,124.7 0,76.6 34.1,148.2 93.3,196.5 l 13.7,11.2 c 45.1,36.8 102,57 160.2,57 m 0,0 v 0"
         style="fill:#243700;fill-opacity:1;fill-rule:nonzero;stroke:none"
         id="path2964" />
    </g>
    <g
       id="g2966"
       transform="matrix(0.03618971,0,0,-0.03618971,-478.38642,542.59676)">
      <path
         d="m 16300,13228.4 v 0 c -54.5,-17.8 -97.2,-60.5 -115,-115 -17.8,54.5 -60.5,97.2 -115,115 54.5,17.8 97.2,60.5 115,115 17.8,-54.5 60.5,-97.2 115,-115"
         style="fill:#ffffff;fill-opacity:1;fill-rule:nonzero;stroke:none"
         id="path2968" />
    </g>
    <g
       id="g2970"
       transform="matrix(0.03913188,0,0,-0.03913188,-478.38642,542.59676)">
      <path
         d="m 16300,11741 v 0 c -50.4,-16.5 -90,-56 -106.4,-106.4 -16.4,50.4 -56,89.9 -106.3,106.4 50.3,16.4 89.9,55.9 106.3,106.3 16.4,-50.4 56,-89.9 106.4,-106.3"
         style="fill:#ffffff;fill-opacity:1;fill-rule:nonzero;stroke:none"
         id="path2972" />
    </g>
    <g
       id="g2974"
       transform="matrix(0.0387978,0,0,-0.0387978,-478.38642,542.59676)">
      <path
         d="m 16300,11624 v 0 c -35.1,-11.5 -62.7,-39 -74.1,-74.2 -11.6,35.2 -39.1,62.7 -74.2,74.2 35.1,11.5 62.6,39 74.2,74.1 11.4,-35.1 39,-62.6 74.1,-74.1"
         style="fill:#ffffff;fill-opacity:1;fill-rule:nonzero;stroke:none"
         id="path2976" />
    </g>
  </g>
</svg>
