<?xml version="1.0" encoding="UTF-8" standalone="no"?>
<!-- Created with Inkscape (http://www.inkscape.org/) -->

<svg
   width="210mm"
   height="297mm"
   viewBox="0 0 210 297"
   version="1.1"
   id="svg15277"
   inkscape:version="1.2.2 (1:1.2.2+202212051550+b0a8486541)"
   sodipodi:docname="drawing-1.svg"
   xmlns:inkscape="http://www.inkscape.org/namespaces/inkscape"
   xmlns:sodipodi="http://sodipodi.sourceforge.net/DTD/sodipodi-0.dtd"
   xmlns="http://www.w3.org/2000/svg"
   xmlns:svg="http://www.w3.org/2000/svg">
  <sodipodi:namedview
     id="namedview15279"
     pagecolor="#505050"
     bordercolor="#eeeeee"
     borderopacity="1"
     inkscape:showpageshadow="0"
     inkscape:pageopacity="0"
     inkscape:pagecheckerboard="0"
     inkscape:deskcolor="#505050"
     inkscape:document-units="mm"
     showgrid="false"
     inkscape:zoom="0.75722503"
     inkscape:cx="397.50403"
     inkscape:cy="561.92015"
     inkscape:window-width="1848"
     inkscape:window-height="1016"
     inkscape:window-x="72"
     inkscape:window-y="27"
     inkscape:window-maximized="1"
     inkscape:current-layer="layer1" />
  <defs
     id="defs15274">
    <clipPath
       clipPathUnits="userSpaceOnUse"
       id="clipPath7672">
      <path
         d="m 20536.1,7176.8 1.8,0.1 c 5.3,0.1 10.3,-2.1 13.9,-5.9 l 1023,-1099.1 c 3.2,-3.4 5,-7.9 5.1,-12.6 0,-1.8 0.3,-45.6 -4.9,-90.7 -8.2,-70.8 -25.7,-105.3 -54.8,-108.3 l -2.3,-0.1 c -5.1,-0.2 -10.1,1.7 -13.8,5.3 -3.7,3.5 -5.8,8.5 -5.7,13.6 0.4,36 -14.5,78.8 -29.5,112.6 0.6,-41.6 6.8,-101.7 29.6,-174.3 2.5,-8.3 -0.8,-17.2 -8.2,-21.7 -2.4,-1.5 -5.1,-2.3 -7.8,-2.6 -5.4,-0.6 -11,1.3 -15.1,5.3 -42.8,42.4 -60.7,95.6 -78.1,147 -6.4,19 -12.9,38.3 -20.7,57.4 -11.1,-47.7 -38,-86.8 -39.8,-89.4 -3.2,-4.6 -8.2,-7.4 -13.5,-7.9 -2.6,-0.3 -5.4,0 -8.1,0.9 -7.9,2.8 -13,10.5 -12.5,18.9 0,0.2 0.6,18.1 -8.3,50.8 -0.7,-28.4 -3.5,-48.9 -3.8,-51 -1.1,-8.6 -8.1,-15.2 -16.6,-16.1 l -1.4,-0.1 c -9.2,-0.2 -17.2,6.2 -18.9,15.2 -11.6,60.6 -53,110.8 -79.5,137.7 -16.8,-58.6 -54.2,-116.6 -56,-119.5 -3.3,-5 -8.4,-7.9 -13.9,-8.5 -4,-0.4 -8.3,0.5 -12,2.9 -8.7,5.5 -11.2,17.1 -5.7,25.8 1,1.7 24.4,42.2 -11.5,103.6 -9,-43.4 6.2,-124 23.7,-178.4 2.9,-9.3 -1.7,-19.3 -10.7,-23 -1.7,-0.7 -3.5,-1.2 -5.3,-1.4 -7.4,-0.7 -14.8,3 -18.5,10 -1.4,2.6 -33.8,64.8 -107,235.2 -18.3,-34 -0.9,-87.7 -0.6,-88.3 3.2,-9.7 -1.9,-20.2 -11.5,-23.6 -1.5,-0.5 -3,-0.9 -4.4,-1 -8.3,-0.9 -16.3,3.9 -19.4,11.9 -1,2.5 -19.7,52.8 -22,149.3 -35.9,-31.5 -90.5,-61 -136.6,-65.8 -25.2,-2.6 -46.3,2.2 -62.7,14.2 -5.7,4.2 -8.6,11.3 -7.4,18.3 1.2,7 6.3,12.7 13.1,14.8 35,10.5 58.5,29.3 71.7,57.4 20.7,44.1 10.9,100.9 1.3,135.6 -21.5,-29.6 -52.8,-80.1 -57.5,-130.1 -0.7,-8.1 -6.6,-14.7 -14.6,-16.5 l -2.1,-0.4 c -7.2,-0.7 -14.3,2.8 -18.1,9.2 -30.5,52 -21.1,136.8 -9.5,194 -44,-43.1 -96.4,-106.8 -97.1,-159 -0.1,-8.1 -5.3,-15.1 -12.9,-17.6 -1.3,-0.4 -2.6,-0.7 -3.9,-0.8 -6.4,-0.7 -12.9,2 -16.9,7.3 -85.3,113.3 -32.5,237.8 10,305.8 -19.9,-5.8 -43.1,-11.1 -67.3,-13.6 -50.4,-5.2 -91.3,3.1 -121.6,24.9 -6.4,4.5 -9.3,12.5 -7.2,20 1.9,7.6 8.4,13.1 16.1,13.9 35.3,3.6 76.2,40.7 111.1,82.1 -25.5,-15.6 -53.9,-29.8 -82.8,-38.2 -1.1,-0.3 -2.2,-0.5 -3.3,-0.6 -3.9,-0.5 -7.8,0.4 -11.2,2.3 -4.5,2.6 -7.6,6.8 -8.9,11.7 -1.8,7.4 -1.5,15.8 0.5,25.1 -16.9,-27.7 -33.2,-59.1 -47.9,-94.5 -2.6,-6.4 -8.6,-10.7 -15.3,-11.4 l -1.6,-0.1 c -7.4,-0.2 -14.2,4.1 -17.4,10.8 -52.9,113.7 25.9,272.1 71.1,347.7 -24.6,-6.3 -55.7,-13 -87.2,-16.2 -59.6,-6.2 -102.9,1.9 -128.8,24.1 -6.5,5.5 -8.4,14.8 -4.6,22.5 2.9,5.9 8.6,9.7 14.9,10.4 1.8,0.2 3.7,0.1 5.6,-0.3 9.6,-1.9 20.3,-2.3 31.7,-1.1 133.6,13.8 328.1,226 330.1,228.1 3.1,3.4 7.4,5.6 11.9,6 z"
         id="path7670" />
    </clipPath>
    <linearGradient
       x1="0"
       y1="0"
       x2="1"
       y2="0"
       gradientUnits="userSpaceOnUse"
       gradientTransform="matrix(697.565,1252.02,1252.02,-697.565,20525.3,5831)"
       spreadMethod="pad"
       id="linearGradient7684">
      <stop
         style="stop-opacity:1;stop-color:#95d543"
         offset="0"
         id="stop7676" />
      <stop
         style="stop-opacity:1;stop-color:#95d543"
         offset="0.00000027"
         id="stop7678" />
      <stop
         style="stop-opacity:1;stop-color:#318063"
         offset="0.70902885"
         id="stop7680" />
      <stop
         style="stop-opacity:1;stop-color:#318063"
         offset="1"
         id="stop7682" />
    </linearGradient>
    <clipPath
       clipPathUnits="userSpaceOnUse"
       id="clipPath7698">
      <path
         d="m 21503.7,6277.5 0.3,1.8 c 1.1,5.2 4.3,9.6 8.9,12.2 l 1297.5,755.7 c 4.1,2.3 8.8,3.1 13.4,2.1 1.8,-0.4 44.5,-9.7 87.4,-24.8 67.3,-23.6 97,-48.2 93.5,-77.3 l -0.3,-2.3 c -0.9,-5 -3.9,-9.5 -8.2,-12.3 -4.3,-2.8 -9.6,-3.7 -14.6,-2.5 -35,8.3 -80,3.2 -116.3,-4 40.8,-8.6 100.7,-15.8 176.6,-9.6 8.6,0.7 16.5,-4.5 19.3,-12.7 0.9,-2.7 1.2,-5.5 0.8,-8.2 -0.6,-5.4 -3.7,-10.5 -8.5,-13.5 -50.7,-32.5 -106.6,-38.2 -160.6,-43.8 -19.9,-2.1 -40.2,-4.2 -60.5,-7.6 44,-21.3 76.3,-56.2 78.4,-58.5 3.8,-4.1 5.4,-9.6 4.8,-14.9 -0.3,-2.6 -1.2,-5.3 -2.7,-7.7 -4.5,-7.1 -13.1,-10.4 -21.2,-8 -0.3,0 -17.5,4.6 -51.4,3.1 27.6,-7 47,-14.2 48.9,-14.9 8.2,-3.1 13.1,-11.3 12,-19.8 l -0.2,-1.4 c -1.8,-9 -9.8,-15.4 -19,-15.1 -61.7,2.1 -119.7,-27.2 -151.8,-47.2 53.5,-29.3 101.8,-78.5 104.3,-81 4.1,-4.2 5.8,-9.9 5.1,-15.3 -0.4,-4.1 -2.3,-8 -5.4,-11.1 -7.3,-7.3 -19.2,-7.2 -26.4,0.1 -1.5,1.4 -35.8,33 -103.6,11.6 40.3,-18.4 122.3,-21.2 179.2,-16.2 9.7,0.8 18.4,-5.9 20.1,-15.5 0.3,-1.8 0.4,-3.7 0.2,-5.4 -0.9,-7.5 -6.2,-13.9 -13.8,-15.9 -2.9,-0.8 -70.7,-18.7 -253,-52.6 29.1,-25.3 85.3,-20.1 86,-20 10.1,1 19.2,-6.3 20.4,-16.4 0.2,-1.6 0.2,-3.1 0,-4.5 -1,-8.3 -7.3,-15.1 -15.9,-16.3 -2.6,-0.4 -55.8,-7.6 -150.4,11.4 22.7,-41.9 39.5,-101.6 34,-147.7 -3,-25.2 -12.3,-44.7 -27.7,-58 -5.3,-4.7 -12.9,-5.9 -19.4,-3.2 -6.6,2.7 -11,8.9 -11.6,16 -2.5,36.5 -15.7,63.5 -40.2,82.6 -38.4,29.9 -96,32.8 -131.9,31.1 24.1,-27.5 66.5,-69.1 114.2,-84.7 7.7,-2.5 12.9,-9.7 12.9,-17.8 l -0.2,-2.2 c -0.8,-7.2 -5.8,-13.4 -12.9,-15.6 -57.4,-18.4 -138,9.5 -191.3,33.5 32.4,-52.5 82.9,-117.6 133.7,-129.8 7.8,-1.8 13.6,-8.5 14.3,-16.4 0.2,-1.4 0.1,-2.7 0,-4 -0.8,-6.5 -4.9,-12.2 -10.9,-14.9 -129.3,-58.2 -239.1,20.7 -296,77.2 1.2,-20.7 1.3,-44.6 -1.6,-68.7 -6,-50.3 -23.2,-88.3 -51.1,-113.2 -5.9,-5.1 -14.3,-6.2 -21.2,-2.6 -6.9,3.6 -10.8,11.1 -9.9,18.9 4.2,35.2 -23,83.2 -55.7,126.4 9.7,-28.3 17.2,-59.1 19.1,-89.2 0,-1.1 0,-2.2 -0.1,-3.3 -0.5,-3.9 -2.2,-7.6 -4.8,-10.5 -3.5,-3.7 -8.3,-5.9 -13.4,-6 -7.5,-0.2 -15.7,1.9 -24.4,5.9 23.3,-22.5 50.4,-45.3 81.7,-67.5 5.6,-3.9 8.6,-10.7 7.8,-17.5 l -0.3,-1.5 c -1.5,-7.3 -7.1,-13 -14.4,-14.6 -122.6,-26.5 -259.7,85.3 -323.4,146 0.7,-25.4 0.3,-57.2 -3.4,-88.6 -7.2,-59.5 -24.6,-100 -52,-120.3 -6.8,-5.1 -16.2,-4.9 -22.9,0.4 -5.2,4.1 -7.6,10.5 -6.9,16.8 0.2,1.9 0.7,3.7 1.5,5.5 4,8.9 6.8,19.2 8.1,30.6 16,133.4 -148.1,369.9 -149.7,372.3 -2.7,3.8 -3.8,8.4 -3.3,12.9 z"
         id="path7696" />
    </clipPath>
    <linearGradient
       x1="0"
       y1="0"
       x2="1"
       y2="0"
       gradientUnits="userSpaceOnUse"
       gradientTransform="matrix(-1067.44,956.406,956.406,1067.44,22814.1,5970.3)"
       spreadMethod="pad"
       id="linearGradient7710">
      <stop
         style="stop-opacity:1;stop-color:#95d543"
         offset="0"
         id="stop7702" />
      <stop
         style="stop-opacity:1;stop-color:#95d543"
         offset="0.00000027"
         id="stop7704" />
      <stop
         style="stop-opacity:1;stop-color:#318063"
         offset="0.70902885"
         id="stop7706" />
      <stop
         style="stop-opacity:1;stop-color:#318063"
         offset="1"
         id="stop7708" />
    </linearGradient>
    <clipPath
       clipPathUnits="userSpaceOnUse"
       id="clipPath7724">
      <path
         d="m 20536.1,7584.3 1.8,-0.1 c 5.3,0 10.3,2.1 13.9,6 l 1023,1099 c 3.2,3.4 5,7.9 5.1,12.6 0,1.8 0.3,45.6 -4.9,90.7 -8.2,70.9 -25.7,105.3 -54.8,108.3 l -2.3,0.2 c -5.1,0.2 -10.1,-1.7 -13.8,-5.3 -3.7,-3.6 -5.8,-8.5 -5.7,-13.7 0.4,-36 -14.5,-78.8 -29.5,-112.5 0.6,41.6 6.8,101.6 29.6,174.3 2.5,8.2 -0.8,17.1 -8.2,21.6 -2.4,1.5 -5.1,2.4 -7.8,2.6 -5.4,0.6 -11,-1.2 -15.1,-5.3 -42.8,-42.3 -60.7,-95.5 -78.1,-147 -6.4,-19 -12.9,-38.2 -20.7,-57.3 -11.1,47.6 -38,86.8 -39.8,89.4 -3.2,4.5 -8.2,7.3 -13.5,7.9 -2.6,0.3 -5.4,0 -8.1,-1 -7.9,-2.7 -13,-10.5 -12.5,-18.8 0,-0.3 0.6,-18.2 -8.3,-50.8 -0.7,28.4 -3.5,48.9 -3.8,50.9 -1.1,8.6 -8.1,15.2 -16.6,16.1 l -1.4,0.1 c -9.2,0.3 -17.2,-6.2 -18.9,-15.2 -11.6,-60.6 -53,-110.7 -79.5,-137.6 -16.8,58.5 -54.2,116.6 -56,119.5 -3.3,4.9 -8.4,7.9 -13.9,8.4 -4,0.4 -8.3,-0.5 -12,-2.8 -8.7,-5.6 -11.2,-17.1 -5.7,-25.8 1,-1.8 24.4,-42.2 -11.5,-103.7 -9,43.5 6.2,124 23.7,178.4 2.9,9.3 -1.7,19.3 -10.7,23 -1.7,0.8 -3.5,1.2 -5.3,1.4 -7.4,0.8 -14.8,-3 -18.5,-9.9 -1.4,-2.7 -33.8,-64.9 -107,-235.2 -18.3,34 -0.9,87.6 -0.6,88.3 3.2,9.6 -1.9,20.1 -11.5,23.6 -1.5,0.5 -3,0.8 -4.4,0.9 -8.3,0.9 -16.3,-3.8 -19.4,-11.9 -1,-2.4 -19.7,-52.8 -22,-149.2 -35.9,31.4 -90.5,60.9 -136.6,65.7 -25.2,2.6 -46.3,-2.2 -62.7,-14.2 -5.7,-4.2 -8.6,-11.3 -7.4,-18.3 1.2,-7 6.3,-12.7 13.1,-14.7 35,-10.6 58.5,-29.4 71.7,-57.5 20.7,-44.1 10.9,-100.9 1.3,-135.6 -21.5,29.6 -52.8,80.1 -57.5,130.1 -0.7,8.1 -6.6,14.8 -14.6,16.5 l -2.1,0.4 c -7.2,0.7 -14.3,-2.8 -18.1,-9.2 -30.5,-51.9 -21.1,-136.7 -9.5,-194 -44,43.1 -96.4,106.8 -97.1,159.1 -0.1,8 -5.3,15.1 -12.9,17.5 -1.3,0.5 -2.6,0.7 -3.9,0.9 -6.4,0.6 -12.9,-2.1 -16.9,-7.4 -85.3,-113.2 -32.5,-237.7 10,-305.7 -19.9,5.8 -43.1,11.1 -67.3,13.6 -50.4,5.2 -91.3,-3.2 -121.6,-24.9 -6.4,-4.6 -9.3,-12.6 -7.2,-20.1 1.9,-7.5 8.4,-13 16.1,-13.8 35.3,-3.7 76.2,-40.8 111.1,-82.2 -25.5,15.6 -53.9,29.8 -82.8,38.2 -1.1,0.4 -2.2,0.6 -3.3,0.7 -3.9,0.4 -7.8,-0.4 -11.2,-2.4 -4.5,-2.5 -7.6,-6.7 -8.9,-11.7 -1.8,-7.3 -1.5,-15.8 0.5,-25.1 -16.9,27.7 -33.2,59.1 -47.9,94.5 -2.6,6.4 -8.6,10.8 -15.3,11.5 l -1.6,0.1 c -7.4,0.1 -14.2,-4.1 -17.4,-10.9 -52.9,-113.7 25.9,-272.1 71.1,-347.6 -24.6,6.3 -55.7,12.9 -87.2,16.2 -59.6,6.1 -102.9,-2 -128.8,-24.1 -6.5,-5.6 -8.4,-14.8 -4.6,-22.5 2.9,-5.9 8.6,-9.8 14.9,-10.4 1.8,-0.2 3.7,-0.1 5.6,0.2 9.6,2 20.3,2.4 31.7,1.2 133.6,-13.8 328.1,-226 330.1,-228.2 3.1,-3.4 7.4,-5.5 11.9,-6 z"
         id="path7722" />
    </clipPath>
    <linearGradient
       x1="0"
       y1="0"
       x2="1"
       y2="0"
       gradientUnits="userSpaceOnUse"
       gradientTransform="matrix(697.565,-1252.02,1252.02,697.565,20525.3,8930.2)"
       spreadMethod="pad"
       id="linearGradient7736">
      <stop
         style="stop-opacity:1;stop-color:#95d543"
         offset="0"
         id="stop7728" />
      <stop
         style="stop-opacity:1;stop-color:#95d543"
         offset="0.00000027"
         id="stop7730" />
      <stop
         style="stop-opacity:1;stop-color:#318063"
         offset="0.70902885"
         id="stop7732" />
      <stop
         style="stop-opacity:1;stop-color:#318063"
         offset="1"
         id="stop7734" />
    </linearGradient>
    <clipPath
       clipPathUnits="userSpaceOnUse"
       id="clipPath7750">
      <path
         d="m 21503.7,8483.6 0.3,-1.8 c 1.1,-5.1 4.3,-9.5 8.9,-12.2 L 22810.4,7714 c 4.1,-2.4 8.8,-3.1 13.4,-2.1 1.8,0.4 44.5,9.7 87.4,24.7 67.3,23.7 97,48.2 93.5,77.4 l -0.3,2.2 c -0.9,5.1 -3.9,9.5 -8.2,12.3 -4.3,2.8 -9.6,3.7 -14.6,2.5 -35,-8.3 -80,-3.2 -116.3,4 40.8,8.6 100.7,15.8 176.6,9.6 8.6,-0.7 16.5,4.5 19.3,12.7 0.9,2.7 1.2,5.5 0.8,8.2 -0.6,5.4 -3.7,10.5 -8.5,13.6 -50.7,32.4 -106.6,38.2 -160.6,43.8 -19.9,2 -40.2,4.1 -60.5,7.5 44,21.3 76.3,56.2 78.4,58.5 3.8,4.2 5.4,9.6 4.8,14.9 -0.3,2.7 -1.2,5.3 -2.7,7.7 -4.5,7.1 -13.1,10.4 -21.2,8.1 -0.3,-0.1 -17.5,-4.6 -51.4,-3.2 27.6,7.1 47,14.2 48.9,15 8.2,3 13.1,11.2 12,19.7 l -0.2,1.5 c -1.8,9 -9.8,15.4 -19,15.1 -61.7,-2.1 -119.7,27.2 -151.8,47.1 53.5,29.3 101.8,78.5 104.3,81 4.1,4.2 5.8,9.9 5.1,15.4 -0.4,4 -2.3,8 -5.4,11.1 -7.3,7.2 -19.2,7.2 -26.4,-0.1 -1.5,-1.4 -35.8,-33.1 -103.6,-11.7 40.3,18.4 122.3,21.3 179.2,16.3 9.7,-0.9 18.4,5.8 20.1,15.4 0.3,1.9 0.4,3.7 0.2,5.5 -0.9,7.4 -6.2,13.8 -13.8,15.9 -2.9,0.7 -70.7,18.7 -253,52.5 29.1,25.3 85.3,20.1 86,20.1 10.1,-1 19.2,6.3 20.4,16.4 0.2,1.5 0.2,3 0,4.5 -1,8.2 -7.3,15 -15.9,16.3 -2.6,0.4 -55.8,7.6 -150.4,-11.5 22.7,41.9 39.5,101.7 34,147.8 -3,25.1 -12.3,44.6 -27.7,57.9 -5.3,4.7 -12.9,5.9 -19.4,3.2 -6.6,-2.7 -11,-8.9 -11.6,-16 -2.5,-36.5 -15.7,-63.5 -40.2,-82.5 -38.4,-30 -96,-32.9 -131.9,-31.2 24.1,27.5 66.5,69.1 114.2,84.7 7.7,2.5 12.9,9.7 12.9,17.9 l -0.2,2.1 c -0.8,7.3 -5.8,13.4 -12.9,15.7 -57.4,18.3 -138,-9.5 -191.3,-33.5 32.4,52.4 82.9,117.5 133.7,129.7 7.8,1.9 13.6,8.5 14.3,16.5 0.2,1.3 0.1,2.7 0,4 -0.8,6.4 -4.9,12.1 -10.9,14.8 -129.3,58.2 -239.1,-20.7 -296,-77.1 1.2,20.6 1.3,44.5 -1.6,68.7 -6,50.2 -23.2,88.3 -51.1,113.1 -5.9,5.2 -14.3,6.2 -21.2,2.6 -6.9,-3.6 -10.8,-11.1 -9.9,-18.8 4.2,-35.2 -23,-83.3 -55.7,-126.5 9.7,28.3 17.2,59.2 19.1,89.2 0,1.1 0,2.3 -0.1,3.4 -0.5,3.8 -2.2,7.5 -4.8,10.4 -3.5,3.8 -8.3,5.9 -13.4,6.1 -7.5,0.2 -15.7,-2 -24.4,-6 23.3,22.5 50.4,45.3 81.7,67.5 5.6,4 8.6,10.7 7.8,17.5 l -0.3,1.5 c -1.5,7.3 -7.1,13 -14.4,14.6 -122.6,26.5 -259.7,-85.2 -323.4,-145.9 0.7,25.3 0.3,57.1 -3.4,88.6 -7.2,59.4 -24.6,99.9 -52,120.3 -6.8,5.1 -16.2,4.9 -22.9,-0.5 -5.2,-4.1 -7.6,-10.5 -6.9,-16.8 0.2,-1.9 0.7,-3.7 1.5,-5.4 4,-9 6.8,-19.3 8.1,-30.7 16,-133.3 -148.1,-369.9 -149.7,-372.2 -2.7,-3.8 -3.8,-8.5 -3.3,-13 z"
         id="path7748" />
    </clipPath>
    <linearGradient
       x1="0"
       y1="0"
       x2="1"
       y2="0"
       gradientUnits="userSpaceOnUse"
       gradientTransform="matrix(-1067.44,-956.406,956.406,-1067.44,22814.1,8790.8)"
       spreadMethod="pad"
       id="linearGradient7762">
      <stop
         style="stop-opacity:1;stop-color:#95d543"
         offset="0"
         id="stop7754" />
      <stop
         style="stop-opacity:1;stop-color:#95d543"
         offset="0.00000027"
         id="stop7756" />
      <stop
         style="stop-opacity:1;stop-color:#318063"
         offset="0.70902885"
         id="stop7758" />
      <stop
         style="stop-opacity:1;stop-color:#318063"
         offset="1"
         id="stop7760" />
    </linearGradient>
    <clipPath
       clipPathUnits="userSpaceOnUse"
       id="clipPath7776">
      <path
         d="m 21610.8,6049.3 c -89.2,0 -167.9,72.5 -248,121.4 -27,16.5 -54.2,30.3 -82,37.7 -25.4,6.8 -52.8,9 -81.1,9 -26.7,0 -54.2,-1.9 -81.6,-3.9 -13.2,-1 -26.4,-1.9 -39.4,-2.7 -14.2,-0.8 -28.2,-1.3 -42,-1.3 -2.7,0 -5.3,0 -8,0.1 -27.9,0.4 -54.7,3.3 -79.3,11.1 -11.8,3.7 -23.1,8.5 -33.9,14.7 -101,58.5 -123.7,221.1 -205.7,303.1 -82.1,82 -244.6,104.7 -303.1,205.8 -57.7,99.6 3.4,251.5 -27,365.3 -13.5,50.4 -48,98.8 -81.5,148 -11.3,16.6 -22.4,33.2 -32.6,50 -25.5,42.3 -45,85.7 -45,131.9 0,119.2 129.7,219.9 159.1,329.9 30.4,113.8 -30.7,265.6 27,365.3 20.7,35.8 54.5,61.8 93.2,84.1 -13.8,-12.4 -25.8,-26.2 -34.9,-42.1 -54.2,-93.6 3.2,-236.3 -25.4,-343.2 -3.5,-13.3 -8.7,-26.4 -14.9,-39.5 -17.1,-35.8 -42.2,-70.9 -66.3,-106.5 -35.4,-52.4 -68.2,-105.8 -68.2,-164 0,-2.4 0,-4.8 0.1,-7.2 -0.1,-2.4 -0.1,-4.9 -0.1,-7.3 0,-113.3 123.2,-208.9 151.1,-313.4 2.7,-10.1 4.6,-20.6 6,-31.4 4.6,-71.7 -12.6,-152.3 -4.5,-221.7 1.4,-29.5 6.4,-57.4 18,-82.3 v 0 c 1.8,-4 3.9,-7.8 6.1,-11.6 55.5,-96 210,-117.6 287.9,-195.5 78,-77.9 99.5,-232.4 195.5,-287.9 33.5,-19.4 73.1,-24.6 115.2,-24.6 25.1,0 51.2,1.8 77.2,3.7 26.1,1.9 52.2,3.8 77.6,3.8 26.8,0 52.8,-2.1 77,-8.6 104.5,-27.9 200.1,-151.1 313.5,-151.1 113.3,0 208.9,123.2 313.3,151.1 24.2,6.5 50.2,8.6 77.1,8.6 25.4,0 51.5,-1.9 77.6,-3.8 26.1,-1.9 52.1,-3.7 77.2,-3.7 42.1,0 81.7,5.2 115.2,24.6 96,55.5 117.6,210 195.4,287.9 69.9,69.9 201.5,94.4 267.7,168 7.8,8.5 14.5,17.6 20.3,27.5 19.1,33 24.5,72.2 24.6,113.6 0.2,77.4 -17.8,163 1,233.4 13.8,51.6 50.6,100.8 84.5,151.1 v 0 c 19.6,29 38.1,58.4 50.6,88.7 v 0 0 c 9.9,23.8 16,48.3 16,73.6 0,113.3 -123.2,208.9 -151.1,313.5 -28.9,108.1 29.2,252.3 -25.6,347 -15.7,27.1 -39.2,48.2 -66.7,66.3 -2.4,1.6 -4.8,3.2 -7.3,4.7 55,-27.4 106.4,-57.7 134.2,-105.8 57.7,-99.7 -3.4,-251.5 27,-365.3 29.4,-110 159.1,-210.7 159.1,-329.9 0,-46.2 -19.5,-89.6 -45,-131.9 -10.2,-16.8 -21.3,-33.4 -32.6,-50 -33.5,-49.2 -68,-97.6 -81.5,-148 -30.4,-113.8 30.7,-265.7 -27,-365.3 -58.5,-101.1 -221,-123.8 -303.1,-205.8 -82,-82 -104.7,-244.6 -205.7,-303.1 -10.8,-6.2 -22.1,-11 -33.9,-14.7 -27,-8.5 -56.5,-11.2 -87.3,-11.2 -6.3,0 -12.7,0.1 -19.1,0.3 -16.5,0.5 -33.2,1.6 -50,2.8 -4.1,0.3 -8.2,0.6 -12.3,0.9 -27.4,2 -54.9,3.9 -81.6,3.9 -28.3,0 -55.7,-2.2 -81.1,-9 -27.8,-7.4 -55,-21.2 -82,-37.7 -80.1,-48.9 -158.8,-121.4 -247.9,-121.4 m 950,2253.1 c -35.4,17.9 -68.8,37.2 -94.2,62.6 -2.1,2.1 -4.3,4.4 -6.4,6.7 -72.7,79.7 -95.6,227.2 -189,281.2 -8.3,4.8 -16.9,8.7 -25.9,11.9 21.7,-3.9 42.1,-10.5 60.7,-21.2 81.9,-47.4 112.3,-163.2 164.5,-249 11.2,-18.4 23.3,-35.4 37.2,-50 1.3,-1.4 2.7,-2.8 4,-4.2 14.3,-14.2 31,-26.7 49.1,-38 m -1858.2,31.2 c 2.4,2.2 4.8,4.5 7.2,6.9 1.3,1.3 2.7,2.7 4,4.1 13.9,14.6 26,31.6 37.2,50 52.2,85.8 82.6,201.6 164.5,249 10.8,6.2 22.2,11.1 34.2,14.8 -2.3,-1.2 -4.4,-2.3 -6.6,-3.6 -95,-54.9 -116.3,-207.7 -193.3,-284.8 -13.7,-13.6 -29.8,-25.5 -47.2,-36.4 m 1183.6,359 c -90.1,42.1 -176,137 -275.4,137 -2.5,0 -4.9,-0.1 -7.3,-0.2 -0.2,0 -0.3,0 -0.4,0 2.5,0.2 5.1,0.2 7.7,0.2 99.3,0 185.7,-90 275.4,-137"
         id="path7774" />
    </clipPath>
    <linearGradient
       x1="0"
       y1="0"
       x2="1"
       y2="0"
       gradientUnits="userSpaceOnUse"
       gradientTransform="matrix(866.141,-1967.81,-1967.81,-866.141,21337.2,8060.9)"
       spreadMethod="pad"
       id="linearGradient7786">
      <stop
         style="stop-opacity:1;stop-color:#f8a45b"
         offset="0"
         id="stop7780" />
      <stop
         style="stop-opacity:1;stop-color:#562500"
         offset="0.70902877"
         id="stop7782" />
      <stop
         style="stop-opacity:1;stop-color:#562500"
         offset="1"
         id="stop7784" />
    </linearGradient>
    <clipPath
       clipPathUnits="userSpaceOnUse"
       id="clipPath7796">
      <path
         d="m 21610.8,6188.4 c -113.4,0 -209,123.2 -313.5,151.1 -24.2,6.5 -50.2,8.6 -77,8.6 -25.4,0 -51.5,-1.9 -77.6,-3.8 -26,-1.9 -52.1,-3.7 -77.2,-3.7 -42.1,0 -81.7,5.2 -115.2,24.6 -96,55.5 -117.5,210 -195.5,287.9 -77.9,77.9 -232.4,99.5 -287.9,195.5 -2.2,3.8 -4.3,7.6 -6.1,11.6 2.5,1.4 5.1,2.9 7.6,4.5 57.7,-90.2 205.8,-112.1 281.4,-187.6 77,-77.1 98.3,-229.9 193.3,-284.8 33.1,-19.1 72.2,-24.3 113.8,-24.3 24.9,0 50.6,1.8 76.4,3.7 25.9,1.9 51.7,3.7 76.8,3.7 26.6,0 52.3,-2.1 76.2,-8.4 103.3,-27.7 197.9,-149.6 310,-149.6 112,0 206.5,121.9 309.9,149.6 23.9,6.3 49.6,8.4 76.2,8.4 25.1,0 50.9,-1.8 76.7,-3.7 25.8,-1.9 51.6,-3.7 76.5,-3.7 41.5,0 80.7,5.2 113.8,24.3 95,54.9 116.2,207.7 193.3,284.7 77.1,77.1 229.9,98.4 284.8,193.3 54.1,93.7 -3.3,236.4 25.3,343.3 12,44.9 41.9,88.2 71.7,131.9 13.4,0.5 26.8,0.9 40.2,1.2 -33.9,-50.3 -70.7,-99.5 -84.5,-151.1 -18.8,-70.4 -0.8,-156 -1,-233.4 -0.1,-41.4 -5.5,-80.6 -24.6,-113.6 -5.8,-9.9 -12.5,-19 -20.3,-27.5 -66.2,-73.6 -197.8,-98.1 -267.7,-168 -77.8,-77.9 -99.4,-232.4 -195.4,-287.9 -33.5,-19.4 -73.1,-24.6 -115.2,-24.6 -25.1,0 -51.1,1.8 -77.2,3.7 -26.1,1.9 -52.2,3.8 -77.6,3.8 -26.9,0 -52.9,-2.1 -77.1,-8.6 -104.4,-27.9 -200,-151.1 -313.3,-151.1 m -1163.5,975.8 c -1.4,10.8 -3.3,21.3 -6,31.4 -27.9,104.5 -151.1,200.1 -151.1,313.4 0,2.4 0,4.9 0.1,7.3 5.1,-108.9 122.2,-201.6 149.3,-302.7 4.2,-15.8 6.6,-32.3 7.7,-49.4 m 2431.6,269.7 c 14.1,28.9 23.4,58.6 23.4,89.6 0,112.1 -121.8,206.7 -149.5,310 -28.6,106.9 28.8,249.6 -25.3,343.2 -15.5,26.9 -38.9,47.9 -66.2,65.8 -69.1,45.7 -163.3,72.3 -218.5,127.5 -3.6,3.6 -7,7.2 -10.1,11 -69.1,79.9 -92.7,221.4 -183.3,273.8 -21.9,12.7 -46.5,19.2 -72.6,22.2 24.1,-1.1 47.3,-4.6 68.5,-12.2 9,-3.2 17.6,-7.1 25.9,-11.9 93.4,-54 116.3,-201.5 189,-281.2 2.1,-2.3 4.3,-4.6 6.4,-6.7 25.4,-25.4 58.8,-44.7 94.2,-62.6 40.2,-20.3 83.1,-38.8 119.8,-61.9 2.5,-1.5 4.9,-3.1 7.3,-4.7 27.5,-18.1 51,-39.2 66.7,-66.3 54.8,-94.7 -3.3,-238.9 25.6,-347 27.9,-104.6 151.1,-200.2 151.1,-313.5 0,-25.3 -6.1,-49.8 -16,-73.6 v 0 c -11.5,-0.5 -23.7,-0.9 -36.4,-1.5 m -923.5,1238.6 c -17,1.1 -33.5,3.5 -49.2,7.7 -101.1,27 -193.9,144.2 -302.7,149.2 2.4,0.1 4.8,0.2 7.3,0.2 99.4,0 185.3,-94.9 275.4,-137 12.6,-5.9 25.2,-10.7 37.9,-14.1 10.2,-2.7 20.6,-4.7 31.3,-6"
         id="path7794" />
    </clipPath>
    <linearGradient
       x1="0"
       y1="0"
       x2="1"
       y2="0"
       gradientUnits="userSpaceOnUse"
       gradientTransform="matrix(-2666.8,2034.29,2034.29,2666.8,23720.5,5899.7)"
       spreadMethod="pad"
       id="linearGradient7806">
      <stop
         style="stop-opacity:1;stop-color:#f8a45b"
         offset="0"
         id="stop7800" />
      <stop
         style="stop-opacity:1;stop-color:#96440c"
         offset="0.83257708"
         id="stop7802" />
      <stop
         style="stop-opacity:1;stop-color:#96440c"
         offset="1"
         id="stop7804" />
    </linearGradient>
    <clipPath
       clipPathUnits="userSpaceOnUse"
       id="clipPath7816">
      <path
         d="m 21596.3,6217.4 c -112.1,0 -206.7,121.9 -310,149.6 -23.9,6.3 -49.6,8.4 -76.2,8.4 -25.1,0 -50.9,-1.8 -76.8,-3.7 -25.8,-1.9 -51.5,-3.7 -76.4,-3.7 -41.6,0 -80.7,5.2 -113.8,24.3 -95,54.9 -116.3,207.7 -193.3,284.8 -75.6,75.5 -223.7,97.4 -281.4,187.6 119.5,70.2 291.3,150.4 533.7,225.2 v -233.1 -42 h 42 378.4 42 v 42 127.4 h 273.1 v -127.4 -42 h 42 378.3 42 v 42 451.1 c 190.2,17.5 397.9,30.4 624.6,37.6 -29.8,-43.7 -59.7,-87 -71.7,-131.9 -28.6,-106.9 28.8,-249.6 -25.3,-343.3 -54.9,-94.9 -207.7,-116.2 -284.8,-193.3 -77.1,-77 -98.3,-229.8 -193.3,-284.7 -33.1,-19.1 -72.3,-24.3 -113.8,-24.3 -24.9,0 -50.7,1.8 -76.5,3.7 -25.8,1.9 -51.6,3.7 -76.7,3.7 -26.6,0 -52.3,-2.1 -76.2,-8.4 -103.4,-27.7 -197.9,-149.6 -309.9,-149.6 m -1153.5,725.1 c -8.1,69.4 9.1,150 4.5,221.7 -1.1,17.1 -3.5,33.6 -7.7,49.4 -27.1,101.1 -144.2,193.8 -149.3,302.7 -0.1,2.4 -0.1,4.8 -0.1,7.2 0,58.2 32.8,111.6 68.2,164 24.1,35.6 49.2,70.7 66.3,106.5 6.2,13.1 11.4,26.2 14.9,39.5 28.6,106.9 -28.8,249.6 25.4,343.2 9.1,15.9 21.1,29.7 34.9,42.1 54.3,48.5 138.1,74.6 202.7,114.8 17.4,10.9 33.5,22.8 47.2,36.4 77,77.1 98.3,229.9 193.3,284.8 2.2,1.3 4.3,2.4 6.6,3.6 23.8,12.2 50.6,17.8 79,19.8 9.2,0.7 18.7,1 28.2,1 7.2,0 14.5,-0.2 21.8,-0.5 18,-0.6 36.3,-2 54.6,-3.3 25.9,-1.9 51.7,-3.7 76.8,-3.7 26.6,0 52.3,2.1 76.2,8.5 103.3,27.6 197.9,149.4 310,149.4 2.2,0 4.5,-0.1 6.8,-0.2 0.1,0 0.2,0 0.4,0 108.8,-5 201.6,-122.2 302.7,-149.2 15.7,-4.2 32.2,-6.6 49.2,-7.7 8.9,-0.6 17.8,-0.8 26.9,-0.8 25.1,0 51,1.8 76.8,3.7 19,1.4 38,2.8 56.6,3.4 6.7,0.2 13.3,0.4 19.9,0.4 10.2,0 20.2,-0.4 30.1,-1.1 3.7,-0.3 7.4,-0.6 11.1,-1.1 26.1,-3 50.7,-9.5 72.6,-22.2 90.6,-52.4 114.2,-193.9 183.3,-273.8 3.1,-3.8 6.5,-7.4 10.1,-11 55.2,-55.2 149.4,-81.8 218.5,-127.5 27.3,-17.9 50.7,-38.9 66.2,-65.8 54.1,-93.6 -3.3,-236.3 25.3,-343.2 27.7,-103.3 149.5,-197.9 149.5,-310 0,-31 -9.3,-60.7 -23.4,-89.6 -154.5,-6.3 -396.8,-19.5 -679,-46.5 v 134.4 h 65.2 107.6 l -79.1,72.9 -664.1,611.9 -28.4,26.2 -28.5,-26.2 -664.1,-611.9 -79.1,-72.9 h 107.6 65.1 v -325.2 c -171.4,-42.1 -335.6,-91.4 -484,-149.1 -27.7,-32.1 -52.9,-61.4 -75.7,-88.4 0,-5.6 0.1,-11.1 0.4,-16.6"
         id="path7814" />
    </clipPath>
    <linearGradient
       x1="0"
       y1="0"
       x2="1"
       y2="0"
       gradientUnits="userSpaceOnUse"
       gradientTransform="matrix(984.348,-1983.72,-1983.72,-984.348,21241.6,8238.2)"
       spreadMethod="pad"
       id="linearGradient7826">
      <stop
         style="stop-opacity:1;stop-color:#f8a45b"
         offset="0"
         id="stop7820" />
      <stop
         style="stop-opacity:1;stop-color:#96440c"
         offset="0.83257708"
         id="stop7822" />
      <stop
         style="stop-opacity:1;stop-color:#96440c"
         offset="1"
         id="stop7824" />
    </linearGradient>
    <clipPath
       clipPathUnits="userSpaceOnUse"
       id="clipPath7836">
      <path
         d="m 20921.7,7737.8 c -184,-29.4 -413.3,-43.7 -563.3,-50.3 24.1,35.6 49.2,70.7 66.3,106.5 131,-8.4 310.2,-15 491.9,-6.9 31.3,1.3 36,-44.3 5.1,-49.3 z"
         id="path7834" />
    </clipPath>
    <linearGradient
       x1="0"
       y1="0"
       x2="1"
       y2="0"
       gradientUnits="userSpaceOnUse"
       gradientTransform="matrix(15.1955,-201.34,-201.34,-15.1955,20642.5,7832)"
       spreadMethod="pad"
       id="linearGradient7850">
      <stop
         style="stop-opacity:1;stop-color:#96440c"
         offset="0"
         id="stop7840" />
      <stop
         style="stop-opacity:1;stop-color:#96440c"
         offset="0.384357"
         id="stop7842" />
      <stop
         style="stop-opacity:1;stop-color:#b76427"
         offset="0.49308009"
         id="stop7844" />
      <stop
         style="stop-opacity:1;stop-color:#b76427"
         offset="0.50391"
         id="stop7846" />
      <stop
         style="stop-opacity:1;stop-color:#b76427"
         offset="1"
         id="stop7848" />
    </linearGradient>
    <clipPath
       clipPathUnits="userSpaceOnUse"
       id="clipPath7860">
      <path
         d="m 20460.8,6860.2 c -11.6,24.9 -16.6,52.8 -18,82.3 -0.3,5.5 -0.4,11 -0.4,16.6 22.8,27 48,56.3 75.7,88.4 148.4,57.7 312.6,107 484,149.1 v -106.7 c -242.4,-74.8 -414.2,-155 -533.7,-225.2 -2.5,-1.6 -5.1,-3.1 -7.6,-4.5 v 0 m 1739.1,447.7 v 79.5 c 282.2,27 524.5,40.2 679,46.5 12.7,0.6 24.9,1 36.4,1.5 v 0 c -12.5,-30.3 -31,-59.7 -50.6,-88.7 v 0 c -13.4,-0.3 -26.8,-0.7 -40.2,-1.2 -226.7,-7.2 -434.4,-20.1 -624.6,-37.6"
         id="path7858" />
    </clipPath>
    <linearGradient
       x1="0"
       y1="0"
       x2="1"
       y2="0"
       gradientUnits="userSpaceOnUse"
       gradientTransform="matrix(37.9886,-284.915,-284.915,-37.9886,21653.5,7375.7)"
       spreadMethod="pad"
       id="linearGradient7874">
      <stop
         style="stop-opacity:1;stop-color:#96440c"
         offset="0"
         id="stop7864" />
      <stop
         style="stop-opacity:1;stop-color:#96440c"
         offset="0.384357"
         id="stop7866" />
      <stop
         style="stop-opacity:1;stop-color:#b76427"
         offset="0.49308009"
         id="stop7868" />
      <stop
         style="stop-opacity:1;stop-color:#b76427"
         offset="0.50391"
         id="stop7870" />
      <stop
         style="stop-opacity:1;stop-color:#b76427"
         offset="1"
         id="stop7872" />
    </linearGradient>
    <clipPath
       clipPathUnits="userSpaceOnUse"
       id="clipPath7884">
      <path
         d="m 22779.2,6962.2 c -0.1,-41.4 -5.5,-80.6 -24.6,-113.6 -5.8,-9.9 -12.5,-19 -20.3,-27.5 -135.5,-34.8 -482.6,-118.2 -816.8,-151.2 -23.3,-2.3 -28.2,32.1 -5.1,36.3 341,62.9 683.6,184.9 866.8,256 z"
         id="path7882" />
    </clipPath>
    <linearGradient
       x1="0"
       y1="0"
       x2="1"
       y2="0"
       gradientUnits="userSpaceOnUse"
       gradientTransform="matrix(45.9233,-200.914,-200.914,-45.9233,22329.3,6863.8)"
       spreadMethod="pad"
       id="linearGradient7898">
      <stop
         style="stop-opacity:1;stop-color:#96440c"
         offset="0"
         id="stop7888" />
      <stop
         style="stop-opacity:1;stop-color:#96440c"
         offset="0.384357"
         id="stop7890" />
      <stop
         style="stop-opacity:1;stop-color:#b76427"
         offset="0.49308009"
         id="stop7892" />
      <stop
         style="stop-opacity:1;stop-color:#b76427"
         offset="0.50391"
         id="stop7894" />
      <stop
         style="stop-opacity:1;stop-color:#b76427"
         offset="1"
         id="stop7896" />
    </linearGradient>
    <clipPath
       clipPathUnits="userSpaceOnUse"
       id="clipPath7908">
      <path
         d="m 22687.9,8235.8 c -174,-46.2 -671.5,-168 -1099.6,-169.8 -26.6,-0.1 -30.4,38.5 -4.2,43.4 341.5,64.1 688.8,189 876.1,262.3 2.1,-2.3 4.3,-4.6 6.4,-6.7 56,-56 151.4,-82.9 221.3,-129.2 z"
         id="path7906" />
    </clipPath>
    <linearGradient
       x1="0"
       y1="0"
       x2="1"
       y2="0"
       gradientUnits="userSpaceOnUse"
       gradientTransform="matrix(56.983,-273.518,-273.518,-56.983,22094.3,8318.1)"
       spreadMethod="pad"
       id="linearGradient7922">
      <stop
         style="stop-opacity:1;stop-color:#96440c"
         offset="0"
         id="stop7912" />
      <stop
         style="stop-opacity:1;stop-color:#96440c"
         offset="0.384357"
         id="stop7914" />
      <stop
         style="stop-opacity:1;stop-color:#b76427"
         offset="0.49308009"
         id="stop7916" />
      <stop
         style="stop-opacity:1;stop-color:#b76427"
         offset="0.50391"
         id="stop7918" />
      <stop
         style="stop-opacity:1;stop-color:#b76427"
         offset="1"
         id="stop7920" />
    </linearGradient>
    <clipPath
       clipPathUnits="userSpaceOnUse"
       id="clipPath7932">
      <path
         d="m 22157.9,6856.8 h -378.3 v 169.4 h -357.1 v -169.4 h -378.4 v 707 H 20937 l 664.1,611.9 354.9,-327 -4.6,4.1 -350.3,322.8 -613.1,-564.8 h 98.9 v -652.6 h 287.5 v 31.5 122.2 h 405.4 v -153.7 h 330.8 l 0.2,644 103.2,8.6 -9.2,8.5 h 0.1 l 60.2,-55.5 h -107.2 v -707"
         id="path7930" />
    </clipPath>
    <linearGradient
       x1="0"
       y1="0"
       x2="1"
       y2="0"
       gradientUnits="userSpaceOnUse"
       gradientTransform="matrix(704.012,-1640.89,-1640.89,-704.012,21088.5,8547)"
       spreadMethod="pad"
       id="linearGradient7942">
      <stop
         style="stop-opacity:1;stop-color:#318063"
         offset="0"
         id="stop7936" />
      <stop
         style="stop-opacity:1;stop-color:#124933"
         offset="0.70902877"
         id="stop7938" />
      <stop
         style="stop-opacity:1;stop-color:#124933"
         offset="1"
         id="stop7940" />
    </linearGradient>
    <clipPath
       clipPathUnits="userSpaceOnUse"
       id="clipPath7956">
      <path
         d="m 22110.6,6958.2 h -330.8 v 153.7 h -405.4 v 26.1 h 405.4 v -148.3 h 315.5 v 629.6 h 109.5 l 9.2,-8.5 -103.2,-8.6 -0.2,-644 m -736.2,0 h -287.5 v 652.6 h -98.9 l 613.1,564.8 350.3,-322.8 c -125.3,-184.9 -376.4,-426.4 -864.5,-544.1 v -319 h 287.5 v -31.5"
         id="path7954" />
    </clipPath>
    <linearGradient
       x1="0"
       y1="0"
       x2="1"
       y2="0"
       gradientUnits="userSpaceOnUse"
       gradientTransform="matrix(-821.971,2119.14,2119.14,821.971,21742,7048.6)"
       spreadMethod="pad"
       id="linearGradient7968">
      <stop
         style="stop-opacity:1;stop-color:#95d543"
         offset="0"
         id="stop7960" />
      <stop
         style="stop-opacity:1;stop-color:#95d543"
         offset="0.00000027"
         id="stop7962" />
      <stop
         style="stop-opacity:1;stop-color:#e3ffbb"
         offset="0.70902885"
         id="stop7964" />
      <stop
         style="stop-opacity:1;stop-color:#e3ffbb"
         offset="1"
         id="stop7966" />
    </linearGradient>
    <clipPath
       clipPathUnits="userSpaceOnUse"
       id="clipPath7978">
      <path
         d="m 22204.9,7619.3 h -0.1 l -253.4,233.5 4.6,-4.1 248.9,-229.4"
         id="path7976" />
    </clipPath>
    <linearGradient
       x1="0"
       y1="0"
       x2="1"
       y2="0"
       gradientUnits="userSpaceOnUse"
       gradientTransform="matrix(704.012,-1640.89,-1640.89,-704.012,21088.5,8547)"
       spreadMethod="pad"
       id="linearGradient7988">
      <stop
         style="stop-opacity:1;stop-color:#318063"
         offset="0"
         id="stop7982" />
      <stop
         style="stop-opacity:1;stop-color:#1a573f"
         offset="0.70902877"
         id="stop7984" />
      <stop
         style="stop-opacity:1;stop-color:#1a573f"
         offset="1"
         id="stop7986" />
    </linearGradient>
    <clipPath
       clipPathUnits="userSpaceOnUse"
       id="clipPath8002">
      <path
         d="m 22095.3,6989.7 h -315.5 V 7138 h -405.4 v -26.1 -122.2 h -287.5 v 319 c 488.1,117.7 739.2,359.2 864.5,544.1 v 0 l 253.4,-233.5 h -109.5 v -629.6"
         id="path8000" />
    </clipPath>
    <linearGradient
       x1="0"
       y1="0"
       x2="1"
       y2="0"
       gradientUnits="userSpaceOnUse"
       gradientTransform="matrix(-821.971,2119.14,2119.14,821.971,21742,7048.6)"
       spreadMethod="pad"
       id="linearGradient8014">
      <stop
         style="stop-opacity:1;stop-color:#7cc04b"
         offset="0"
         id="stop8006" />
      <stop
         style="stop-opacity:1;stop-color:#7cc04b"
         offset="0.00000027"
         id="stop8008" />
      <stop
         style="stop-opacity:1;stop-color:#b6dfa5"
         offset="0.70902885"
         id="stop8010" />
      <stop
         style="stop-opacity:1;stop-color:#b6dfa5"
         offset="1"
         id="stop8012" />
    </linearGradient>
  </defs>
  <g
     inkscape:label="Layer 1"
     inkscape:groupmode="layer"
     id="layer1">
    <g
       id="g14906"
       transform="matrix(0.03527778,0,0,-0.03527778,-650.39919,410.96931)">
      <g
         id="g7666">
        <g
           id="g7668"
           clip-path="url(#clipPath7672)">
          <g
             id="g7674"
             transform="scale(1.32393)">
            <path
               d="m 15511.5,5420.85 1.4,0.07 c 4,0.08 7.8,-1.58 10.5,-4.46 l 772.7,-830.18 c 2.4,-2.57 3.8,-5.96 3.8,-9.51 0,-1.36 0.3,-34.45 -3.7,-68.51 -6.2,-53.48 -19.4,-79.54 -41.4,-81.8 l -1.7,-0.08 c -3.9,-0.15 -7.6,1.28 -10.4,4 -2.8,2.65 -4.4,6.42 -4.3,10.28 0.3,27.19 -11,59.52 -22.3,85.04 0.4,-31.42 5.1,-76.81 22.3,-131.65 1.9,-6.27 -0.6,-12.99 -6.2,-16.39 -1.8,-1.13 -3.8,-1.74 -5.8,-1.96 -4.1,-0.46 -8.4,0.98 -11.4,4 -32.4,32.03 -45.9,72.21 -59,111.04 -4.9,14.34 -9.8,28.92 -15.7,43.35 -8.4,-36.03 -28.7,-65.56 -30,-67.53 -2.5,-3.47 -6.2,-5.59 -10.2,-5.96 -2,-0.23 -4.1,0 -6.2,0.68 -5.9,2.11 -9.8,7.93 -9.4,14.27 0,0.15 0.5,13.67 -6.3,38.37 -0.5,-21.45 -2.6,-36.93 -2.8,-38.52 -0.9,-6.5 -6.2,-11.48 -12.6,-12.16 l -1,-0.07 c -7,-0.16 -13,4.68 -14.3,11.48 -8.8,45.77 -40,83.69 -60.1,104 -12.6,-44.26 -40.9,-88.07 -42.3,-90.26 -2.4,-3.77 -6.3,-5.97 -10.5,-6.42 -3,-0.3 -6.2,0.38 -9,2.19 -6.6,4.16 -8.5,12.92 -4.3,19.49 0.7,1.28 18.4,31.87 -8.7,78.25 -6.8,-32.78 4.7,-93.66 17.9,-134.75 2.2,-7.02 -1.3,-14.58 -8.1,-17.37 -1.3,-0.53 -2.6,-0.91 -4,-1.06 -5.6,-0.53 -11.2,2.27 -14,7.55 -1,1.97 -25.5,48.95 -80.8,177.66 -13.8,-25.68 -0.7,-66.24 -0.4,-66.7 2.4,-7.32 -1.5,-15.26 -8.7,-17.82 -1.2,-0.38 -2.3,-0.68 -3.3,-0.76 -6.3,-0.68 -12.4,2.95 -14.7,8.99 -0.8,1.89 -14.9,39.88 -16.6,112.77 -27.1,-23.79 -68.4,-46.07 -103.2,-49.7 -19,-1.97 -35,1.66 -47.4,10.72 -4.3,3.18 -6.5,8.54 -5.5,13.83 0.9,5.28 4.7,9.59 9.8,11.18 26.5,7.93 44.2,22.13 54.2,43.35 15.6,33.31 8.2,76.22 1,102.43 -16.3,-22.36 -39.9,-60.51 -43.4,-98.27 -0.6,-6.12 -5,-11.11 -11.1,-12.47 l -1.6,-0.3 c -5.4,-0.53 -10.8,2.12 -13.6,6.95 -23.1,39.28 -16,103.33 -7.2,146.53 -33.2,-32.55 -72.8,-80.67 -73.3,-120.09 -0.1,-6.12 -4,-11.41 -9.8,-13.3 -1,-0.3 -2,-0.53 -2.9,-0.6 -4.9,-0.53 -9.8,1.51 -12.8,5.51 -64.4,85.58 -24.5,179.62 7.6,230.98 -15.1,-4.38 -32.6,-8.38 -50.9,-10.27 -38.1,-3.93 -68.9,2.34 -91.8,18.81 -4.9,3.4 -7.1,9.44 -5.5,15.1 1.5,5.75 6.4,9.9 12.2,10.5 26.7,2.72 57.5,30.75 83.9,62.02 -19.3,-11.79 -40.7,-22.51 -62.5,-28.86 -0.9,-0.22 -1.7,-0.37 -2.5,-0.45 -3,-0.38 -5.9,0.3 -8.5,1.74 -3.4,1.96 -5.7,5.13 -6.7,8.83 -1.4,5.59 -1.1,11.94 0.4,18.96 -12.8,-20.92 -25.1,-44.64 -36.2,-71.38 -2,-4.83 -6.5,-8.08 -11.6,-8.61 l -1.2,-0.07 c -5.6,-0.15 -10.7,3.1 -13.1,8.16 -40,85.88 19.5,205.52 53.7,262.62 -18.6,-4.76 -42.1,-9.82 -65.9,-12.23 -45,-4.69 -77.7,1.43 -97.3,18.2 -4.9,4.15 -6.3,11.18 -3.4,16.99 2.2,4.46 6.5,7.33 11.2,7.86 1.4,0.15 2.8,0.08 4.2,-0.23 7.3,-1.43 15.4,-1.73 24,-0.83 100.9,10.43 247.8,170.71 249.3,172.29 2.4,2.57 5.6,4.24 9,4.54"
               style="fill:url(#linearGradient7684);fill-opacity:1;fill-rule:nonzero;stroke:none"
               id="path7686" />
          </g>
        </g>
      </g>
      <g
         id="g7688"
         transform="scale(1.32014)">
        <path
           d="m 15515.2,5242.72 c 0,0 -110.8,-155.29 -65.7,-252.17 59.3,142.86 154.4,191.72 154.4,191.72 0,0 -107.5,-109.91 -98.2,-146.42 60.2,17.5 118.9,75.82 118.9,75.82 0,0 -71.4,-124.07 -133.3,-130.51 54.8,-39.24 155.6,8.25 155.6,8.25 0,0 -110.6,-120.82 -31.5,-225.88 1,66.51 100.9,144.45 100.9,144.45 0,0 -35.3,-110.37 -5,-161.87 5.4,57.19 56.3,113.24 56.3,113.24 0,0 57.9,-136.65 -50.4,-169.3 39.7,-29.09 131.5,32.57 140.6,60.9 -3.5,-87.79 13.7,-132.86 13.7,-132.86 0,0 -20.9,62.26 16.6,86.65 55.4,-129.98 79.7,-176.34 79.7,-176.34 0,0 -37.5,117.26 -5.7,149.83 47.2,-59.61 20.3,-102.03 20.3,-102.03 0,0 35.7,55.07 40.8,98.55 0,0 61.4,-48.33 74.2,-115.37 0,0 11.2,81.2 -12.9,125.6 49.3,-80.83 46.4,-128.02 46.4,-128.02 0,0 43.7,62.72 21.7,108.47 45.8,-62.42 41.6,-135.13 91.6,-184.6 -32,102.11 -17.3,168.09 -17.3,168.09 0,0 42.7,-69.77 42.1,-122.56 31,1.21 29.9,122.18 29.9,122.18 l -693.8,745.23 c 0,0 -161.2,-177.26 -257.1,-157.87 42.7,-36.58 167.2,6.82 167.2,6.82"
           style="fill:#318063;fill-opacity:1;fill-rule:nonzero;stroke:none"
           id="path7690" />
      </g>
      <g
         id="g7692">
        <g
           id="g7694"
           clip-path="url(#clipPath7698)">
          <g
             id="g7700"
             transform="scale(1.41487)">
            <path
               d="m 15198.3,4436.8 0.3,1.27 c 0.7,3.68 3,6.79 6.2,8.62 l 917.1,534.12 c 2.9,1.62 6.2,2.19 9.5,1.48 1.2,-0.28 31.4,-6.85 61.7,-17.53 47.6,-16.68 68.6,-34.06 66.1,-54.63 l -0.2,-1.63 c -0.6,-3.53 -2.8,-6.71 -5.8,-8.69 -3,-1.98 -6.8,-2.61 -10.3,-1.77 -24.7,5.87 -56.6,2.26 -82.2,-2.82 28.8,-6.08 71.2,-11.17 124.8,-6.79 6.1,0.49 11.7,-3.18 13.7,-8.98 0.6,-1.9 0.8,-3.88 0.5,-5.79 -0.4,-3.82 -2.6,-7.42 -6,-9.54 -35.8,-22.97 -75.3,-27 -113.5,-30.96 -14.1,-1.48 -28.4,-2.97 -42.8,-5.37 31.1,-15.06 54,-39.72 55.5,-41.35 2.6,-2.89 3.8,-6.78 3.3,-10.53 -0.2,-1.84 -0.8,-3.74 -1.9,-5.44 -3.1,-5.02 -9.2,-7.35 -14.9,-5.65 -0.3,0 -12.4,3.25 -36.4,2.19 19.5,-4.95 33.2,-10.04 34.6,-10.53 5.8,-2.2 9.2,-7.99 8.5,-14 l -0.2,-0.99 c -1.2,-6.36 -6.9,-10.88 -13.4,-10.67 -43.6,1.48 -84.6,-19.22 -107.3,-33.36 37.8,-20.71 72,-55.48 73.7,-57.25 2.9,-2.97 4.1,-7 3.6,-10.81 -0.3,-2.9 -1.6,-5.66 -3.8,-7.85 -5.1,-5.16 -13.6,-5.09 -18.6,0.07 -1.1,0.99 -25.4,23.33 -73.3,8.2 28.5,-13 86.5,-14.98 126.7,-11.45 6.8,0.57 13,-4.17 14.2,-10.95 0.2,-1.28 0.3,-2.62 0.1,-3.82 -0.6,-5.3 -4.3,-9.82 -9.7,-11.24 -2.1,-0.56 -50,-13.21 -178.8,-37.18 20.5,-17.88 60.3,-14.2 60.7,-14.13 7.2,0.71 13.6,-4.45 14.5,-11.59 0.1,-1.13 0.1,-2.19 0,-3.18 -0.7,-5.87 -5.2,-10.68 -11.3,-11.52 -1.8,-0.28 -39.4,-5.38 -106.3,8.05 16.1,-29.61 27.9,-71.8 24.1,-104.39 -2.2,-17.81 -8.7,-31.59 -19.6,-40.99 -3.8,-3.32 -9.1,-4.17 -13.7,-2.26 -4.7,1.91 -7.8,6.29 -8.2,11.31 -1.8,25.79 -11.1,44.88 -28.4,58.38 -27.2,21.13 -67.9,23.18 -93.3,21.98 17.1,-19.44 47,-48.84 80.7,-59.87 5.5,-1.76 9.2,-6.85 9.2,-12.58 l -0.2,-1.55 c -0.5,-5.09 -4.1,-9.47 -9.1,-11.03 -40.6,-13 -97.5,6.72 -135.2,23.68 22.9,-37.11 58.6,-83.12 94.5,-91.74 5.5,-1.27 9.6,-6.01 10.1,-11.59 0.1,-0.99 0.1,-1.91 0,-2.83 -0.6,-4.59 -3.5,-8.62 -7.7,-10.53 -91.4,-41.13 -169,14.63 -209.2,54.56 0.8,-14.63 0.9,-31.52 -1.1,-48.55 -4.3,-35.55 -16.4,-62.41 -36.2,-80.01 -4.1,-3.6 -10.1,-4.38 -14.9,-1.84 -4.9,2.55 -7.7,7.85 -7,13.36 2.9,24.88 -16.3,58.81 -39.4,89.34 6.9,-20 12.2,-41.77 13.5,-63.05 0,-0.77 0,-1.55 -0.1,-2.33 -0.3,-2.76 -1.5,-5.37 -3.4,-7.42 -2.4,-2.62 -5.8,-4.17 -9.4,-4.24 -5.3,-0.14 -11.1,1.34 -17.3,4.17 16.5,-15.9 35.6,-32.02 57.8,-47.71 3.9,-2.75 6,-7.56 5.5,-12.37 l -0.2,-1.06 c -1.1,-5.16 -5.1,-9.19 -10.2,-10.32 -86.7,-18.72 -183.6,60.29 -228.6,103.19 0.5,-17.95 0.2,-40.43 -2.4,-62.62 -5.1,-42.05 -17.4,-70.67 -36.7,-85.02 -4.8,-3.61 -11.5,-3.47 -16.2,0.28 -3.7,2.9 -5.4,7.42 -4.9,11.87 0.1,1.35 0.5,2.62 1.1,3.89 2.8,6.29 4.8,13.57 5.7,21.63 11.3,94.28 -104.7,261.43 -105.8,263.13 -1.9,2.69 -2.7,5.94 -2.4,9.12"
               style="fill:url(#linearGradient7710);fill-opacity:1;fill-rule:nonzero;stroke:none"
               id="path7712" />
          </g>
        </g>
      </g>
      <g
         id="g7714"
         transform="scale(1.40702)">
        <path
           d="m 15452,4384.15 c 0,0 119.1,-133.55 217.2,-112.37 -118.5,83.87 -143.6,180.95 -143.6,180.95 0,0 78.3,-121.04 113.7,-120.18 -3.5,58.77 -44.8,124.59 -44.8,124.59 0,0 98.8,-91.05 91.9,-148.97 47.2,42.07 24.6,144.06 24.6,144.06 0,0 87.7,-126.22 200.2,-75.48 -60.7,14.57 -111.3,122.18 -111.3,122.18 0,0 93.6,-55.08 147.1,-38.03 -51.2,16.78 -92,74.91 -92,74.91 0,0 137,24.74 144.5,-81.23 34.8,30.35 -2.6,127.15 -26.6,141.36 79.6,-21.39 124.4,-14.92 124.4,-14.92 0,0 -61.3,-6.33 -75.9,33.04 130.4,23.88 177.9,36.53 177.9,36.53 0,0 -115.1,-10.09 -138.3,25.73 64.2,30.85 97.6,-2.49 97.6,-2.49 0,0 -43,44.07 -81.8,57.72 0,0 56.9,46.26 120.9,44.06 0,0 -72,27.01 -117.6,14.14 84.2,28.43 126.7,15.99 126.7,15.99 0,0 -48.2,52.95 -94.7,42.29 66.6,29 132.3,10.09 187.9,45.7 -100.1,-8.24 -157.4,18.84 -157.4,18.84 0,0 72.7,24.73 120.9,13.29 5.2,28.49 -105.7,52.52 -105.7,52.52 l -825.4,-480.73 c 0,0 128.7,-184.29 91.1,-268.02 42.4,31.56 28.5,154.52 28.5,154.52"
           style="fill:#318063;fill-opacity:1;fill-rule:nonzero;stroke:none"
           id="path7716" />
      </g>
      <g
         id="g7718">
        <g
           id="g7720"
           clip-path="url(#clipPath7724)">
          <g
             id="g7726"
             transform="scale(1.32393)">
            <path
               d="m 15511.5,5728.64 1.4,-0.07 c 4,0 7.8,1.58 10.5,4.53 l 772.7,830.1 c 2.4,2.57 3.8,5.97 3.8,9.52 0,1.36 0.3,34.45 -3.7,68.51 -6.2,53.55 -19.4,79.54 -41.4,81.8 l -1.7,0.15 c -3.9,0.15 -7.6,-1.28 -10.4,-4 -2.8,-2.72 -4.4,-6.42 -4.3,-10.35 0.3,-27.19 -11,-59.52 -22.3,-84.97 0.4,31.42 5.1,76.74 22.3,131.65 1.9,6.2 -0.6,12.92 -6.2,16.32 -1.8,1.13 -3.8,1.81 -5.8,1.96 -4.1,0.46 -8.4,-0.9 -11.4,-4 -32.4,-31.95 -45.9,-72.14 -59,-111.04 -4.9,-14.35 -9.8,-28.85 -15.7,-43.28 -8.4,35.96 -28.7,65.57 -30,67.53 -2.5,3.4 -6.2,5.52 -10.2,5.97 -2,0.22 -4.1,0 -6.2,-0.76 -5.9,-2.04 -9.8,-7.93 -9.4,-14.2 0,-0.22 0.5,-13.75 -6.3,-38.37 -0.5,21.45 -2.6,36.94 -2.8,38.45 -0.9,6.49 -6.2,11.48 -12.6,12.16 l -1,0.07 c -7,0.23 -13,-4.68 -14.3,-11.48 -8.8,-45.77 -40,-83.61 -60.1,-103.93 -12.6,44.19 -40.9,88.07 -42.3,90.26 -2.4,3.7 -6.3,5.97 -10.5,6.35 -3,0.3 -6.2,-0.38 -9,-2.12 -6.6,-4.23 -8.5,-12.91 -4.3,-19.49 0.7,-1.36 18.4,-31.87 -8.7,-78.32 -6.8,32.85 4.7,93.66 17.9,134.75 2.2,7.02 -1.3,14.57 -8.1,17.37 -1.3,0.6 -2.6,0.91 -4,1.06 -5.6,0.6 -11.2,-2.27 -14,-7.48 -1,-2.04 -25.5,-49.02 -80.8,-177.66 -13.8,25.69 -0.7,66.17 -0.4,66.7 2.4,7.25 -1.5,15.18 -8.7,17.83 -1.2,0.38 -2.3,0.6 -3.3,0.68 -6.3,0.68 -12.4,-2.87 -14.7,-8.99 -0.8,-1.82 -14.9,-39.88 -16.6,-112.7 -27.1,23.72 -68.4,46 -103.2,49.63 -19,1.96 -35,-1.66 -47.4,-10.73 -4.3,-3.17 -6.5,-8.53 -5.5,-13.82 0.9,-5.29 4.7,-9.59 9.8,-11.1 26.5,-8.01 44.2,-22.21 54.2,-43.43 15.6,-33.31 8.2,-76.22 1,-102.43 -16.3,22.36 -39.9,60.51 -43.4,98.27 -0.6,6.12 -5,11.18 -11.1,12.47 l -1.6,0.3 c -5.4,0.52 -10.8,-2.12 -13.6,-6.95 -23.1,-39.21 -16,-103.26 -7.2,-146.54 -33.2,32.56 -72.8,80.67 -73.3,120.18 -0.1,6.04 -4,11.4 -9.8,13.21 -1,0.38 -2,0.53 -2.9,0.69 -4.9,0.45 -9.8,-1.59 -12.8,-5.6 -64.4,-85.5 -24.5,-179.54 7.6,-230.9 -15.1,4.38 -32.6,8.39 -50.9,10.27 -38.1,3.93 -68.9,-2.42 -91.8,-18.81 -4.9,-3.47 -7.1,-9.51 -5.5,-15.18 1.5,-5.66 6.4,-9.81 12.2,-10.42 26.7,-2.79 57.5,-30.82 83.9,-62.09 -19.3,11.78 -40.7,22.51 -62.5,28.86 -0.9,0.3 -1.7,0.45 -2.5,0.52 -3,0.31 -5.9,-0.3 -8.5,-1.81 -3.4,-1.89 -5.7,-5.06 -6.7,-8.83 -1.4,-5.52 -1.1,-11.94 0.4,-18.96 -12.8,20.92 -25.1,44.63 -36.2,71.37 -2,4.84 -6.5,8.16 -11.6,8.69 l -1.2,0.08 c -5.6,0.07 -10.7,-3.1 -13.1,-8.24 -40,-85.88 19.5,-205.52 53.7,-262.55 -18.6,4.76 -42.1,9.74 -65.9,12.24 -45,4.6 -77.7,-1.51 -97.3,-18.21 -4.9,-4.23 -6.3,-11.18 -3.4,-16.99 2.2,-4.46 6.5,-7.4 11.2,-7.86 1.4,-0.15 2.8,-0.07 4.2,0.15 7.3,1.51 15.4,1.82 24,0.91 100.9,-10.42 247.8,-170.7 249.3,-172.37 2.4,-2.57 5.6,-4.15 9,-4.53"
               style="fill:url(#linearGradient7736);fill-opacity:1;fill-rule:nonzero;stroke:none"
               id="path7738" />
          </g>
        </g>
      </g>
      <g
         id="g7740"
         transform="scale(1.32014)">
        <path
           d="m 15515.2,5938.79 c 0,0 -110.8,155.28 -65.7,252.24 59.3,-142.86 154.4,-191.8 154.4,-191.8 0,0 -107.5,109.92 -98.2,146.5 60.2,-17.57 118.9,-75.9 118.9,-75.9 0,0 -71.4,124.16 -133.3,130.52 54.8,39.24 155.6,-8.26 155.6,-8.26 0,0 -110.6,120.83 -31.5,225.96 1,-66.5 100.9,-144.53 100.9,-144.53 0,0 -35.3,110.37 -5,161.96 5.4,-57.19 56.3,-113.25 56.3,-113.25 0,0 57.9,136.58 -50.4,169.3 39.7,29.09 131.5,-32.64 140.6,-60.98 -3.5,87.8 13.7,132.87 13.7,132.87 0,0 -20.9,-62.27 16.6,-86.66 55.4,130.06 79.7,176.35 79.7,176.35 0,0 -37.5,-117.19 -5.7,-149.84 47.2,59.62 20.3,102.04 20.3,102.04 0,0 35.7,-55.07 40.8,-98.55 0,0 61.4,48.33 74.2,115.37 0,0 11.2,-81.21 -12.9,-125.6 49.3,80.83 46.4,128.02 46.4,128.02 0,0 43.7,-62.64 21.7,-108.47 45.8,62.41 41.6,135.13 91.6,184.67 -32,-102.18 -17.3,-168.16 -17.3,-168.16 0,0 42.7,69.84 42.1,122.64 31,-1.29 29.9,-122.26 29.9,-122.26 l -693.8,-745.15 c 0,0 -161.2,177.18 -257.1,157.78 42.7,36.59 167.2,-6.81 167.2,-6.81"
           style="fill:#318063;fill-opacity:1;fill-rule:nonzero;stroke:none"
           id="path7742" />
      </g>
      <g
         id="g7744">
        <g
           id="g7746"
           clip-path="url(#clipPath7750)">
          <g
             id="g7752"
             transform="scale(1.41487)">
            <path
               d="m 15198.3,5996.02 0.3,-1.27 c 0.7,-3.61 3,-6.71 6.2,-8.62 l 917.1,-534.04 c 2.9,-1.7 6.2,-2.2 9.5,-1.49 1.2,0.28 31.4,6.86 61.7,17.46 47.6,16.75 68.6,34.07 66.1,54.7 l -0.2,1.56 c -0.6,3.6 -2.8,6.71 -5.8,8.69 -3,1.98 -6.8,2.62 -10.3,1.77 -24.7,-5.87 -56.6,-2.26 -82.2,2.83 28.8,6.08 71.2,11.16 124.8,6.78 6.1,-0.49 11.7,3.18 13.7,8.98 0.6,1.91 0.8,3.88 0.5,5.79 -0.4,3.82 -2.6,7.42 -6,9.62 -35.8,22.89 -75.3,26.99 -113.5,30.95 -14.1,1.42 -28.4,2.9 -42.8,5.3 31.1,15.06 54,39.72 55.5,41.35 2.6,2.97 3.8,6.78 3.3,10.53 -0.2,1.91 -0.8,3.75 -1.9,5.44 -3.1,5.02 -9.2,7.35 -14.9,5.73 -0.3,-0.07 -12.4,-3.25 -36.4,-2.26 19.5,5.01 33.2,10.03 34.6,10.6 5.8,2.12 9.2,7.91 8.5,13.92 l -0.2,1.06 c -1.2,6.36 -6.9,10.89 -13.4,10.67 -43.6,-1.48 -84.6,19.23 -107.3,33.29 37.8,20.71 72,55.49 73.7,57.25 2.9,2.97 4.1,7 3.6,10.89 -0.3,2.82 -1.6,5.65 -3.8,7.84 -5.1,5.09 -13.6,5.09 -18.6,-0.07 -1.1,-0.99 -25.4,-23.39 -73.3,-8.27 28.5,13.01 86.5,15.06 126.7,11.52 6.8,-0.64 13,4.1 14.2,10.89 0.2,1.34 0.3,2.61 0.1,3.88 -0.6,5.23 -4.3,9.76 -9.7,11.24 -2.1,0.5 -50,13.22 -178.8,37.11 20.5,17.88 60.3,14.2 60.7,14.2 7.2,-0.7 13.6,4.46 14.5,11.6 0.1,1.06 0.1,2.12 0,3.18 -0.7,5.79 -5.2,10.6 -11.3,11.51 -1.8,0.29 -39.4,5.38 -106.3,-8.12 16.1,29.61 27.9,71.88 24.1,104.46 -2.2,17.74 -8.7,31.52 -19.6,40.92 -3.8,3.32 -9.1,4.17 -13.7,2.26 -4.7,-1.9 -7.8,-6.29 -8.2,-11.3 -1.8,-25.8 -11.1,-44.89 -28.4,-58.31 -27.2,-21.21 -67.9,-23.26 -93.3,-22.05 17.1,19.43 47,48.83 80.7,59.86 5.5,1.77 9.2,6.85 9.2,12.65 l -0.2,1.48 c -0.5,5.16 -4.1,9.47 -9.1,11.1 -40.6,12.93 -97.5,-6.71 -135.2,-23.68 22.9,37.04 58.6,83.05 94.5,91.67 5.5,1.35 9.6,6.01 10.1,11.66 0.1,0.92 0.1,1.91 0,2.83 -0.6,4.53 -3.5,8.55 -7.7,10.46 -91.4,41.14 -169,-14.63 -209.2,-54.49 0.8,14.56 0.9,31.45 -1.1,48.56 -4.3,35.48 -16.4,62.4 -36.2,79.93 -4.1,3.68 -10.1,4.38 -14.9,1.84 -4.9,-2.55 -7.7,-7.85 -7,-13.29 2.9,-24.88 -16.3,-58.87 -39.4,-89.41 6.9,20.01 12.2,41.84 13.5,63.05 0,0.78 0,1.62 -0.1,2.4 -0.3,2.69 -1.5,5.3 -3.4,7.35 -2.4,2.69 -5.8,4.17 -9.4,4.31 -5.3,0.15 -11.1,-1.41 -17.3,-4.24 16.5,15.91 35.6,32.02 57.8,47.71 3.9,2.83 6,7.56 5.5,12.37 l -0.2,1.06 c -1.1,5.16 -5.1,9.19 -10.2,10.32 -86.7,18.73 -183.6,-60.22 -228.6,-103.12 0.5,17.88 0.2,40.36 -2.4,62.62 -5.1,41.98 -17.4,70.61 -36.7,85.02 -4.8,3.61 -11.5,3.47 -16.2,-0.35 -3.7,-2.89 -5.4,-7.42 -4.9,-11.87 0.1,-1.35 0.5,-2.62 1.1,-3.82 2.8,-6.36 4.8,-13.64 5.7,-21.7 11.3,-94.21 -104.7,-261.43 -105.8,-263.06 -1.9,-2.68 -2.7,-6.01 -2.4,-9.19"
               style="fill:url(#linearGradient7762);fill-opacity:1;fill-rule:nonzero;stroke:none"
               id="path7764" />
          </g>
        </g>
      </g>
      <g
         id="g7766"
         transform="scale(1.40702)">
        <path
           d="m 15452,6106.86 c 0,0 119.1,133.54 217.2,112.36 -118.5,-83.86 -143.6,-180.87 -143.6,-180.87 0,0 78.3,120.96 113.7,120.11 -3.5,-58.78 -44.8,-124.59 -44.8,-124.59 0,0 98.8,91.04 91.9,148.96 47.2,-42 24.6,-144.06 24.6,-144.06 0,0 87.7,126.23 200.2,75.55 -60.7,-14.57 -111.3,-122.24 -111.3,-122.24 0,0 93.6,55.08 147.1,38.02 -51.2,-16.77 -92,-74.84 -92,-74.84 0,0 137,-24.8 144.5,81.17 34.8,-30.35 -2.6,-127.15 -26.6,-141.29 79.6,21.32 124.4,14.92 124.4,14.92 0,0 -61.3,6.25 -75.9,-33.12 130.4,-23.81 177.9,-36.53 177.9,-36.53 0,0 -115.1,10.09 -138.3,-25.73 64.2,-30.84 97.6,2.56 97.6,2.56 0,0 -43,-44.13 -81.8,-57.78 0,0 56.9,-46.2 120.9,-44.07 0,0 -72,-27 -117.6,-14.07 84.2,-28.5 126.7,-16.06 126.7,-16.06 0,0 -48.2,-52.95 -94.7,-42.29 66.6,-29 132.3,-10.09 187.9,-45.63 -100.1,8.18 -157.4,-18.9 -157.4,-18.9 0,0 72.7,-24.73 120.9,-13.22 5.2,-28.57 -105.7,-52.59 -105.7,-52.59 l -825.4,480.73 c 0,0 128.7,184.29 91.1,268.01 42.4,-31.48 28.5,-154.51 28.5,-154.51"
           style="fill:#318063;fill-opacity:1;fill-rule:nonzero;stroke:none"
           id="path7768" />
      </g>
      <g
         id="g7770">
        <g
           id="g7772"
           clip-path="url(#clipPath7776)">
          <g
             id="g7778"
             transform="scale(1.4111)">
            <path
               d="m 15314.9,4286.94 c -63.2,0 -119,51.38 -175.8,86.04 -19.1,11.69 -38.4,21.47 -58.1,26.71 -18,4.82 -37.4,6.38 -57.5,6.38 -18.9,0 -38.4,-1.35 -57.8,-2.76 -9.3,-0.71 -18.7,-1.35 -27.9,-1.92 -10.1,-0.56 -20,-0.92 -29.8,-0.92 -1.9,0 -3.7,0 -5.6,0.07 -19.8,0.29 -38.8,2.34 -56.2,7.87 -8.4,2.62 -16.4,6.02 -24.1,10.42 -71.5,41.46 -87.6,156.68 -145.7,214.79 -58.2,58.12 -173.4,74.2 -214.8,145.85 -40.9,70.58 2.4,178.23 -19.2,258.88 -9.5,35.71 -34,70.01 -57.7,104.88 -8,11.76 -15.9,23.53 -23.1,35.43 -18.1,29.98 -31.9,60.73 -31.9,93.47 0,84.48 91.9,155.84 112.7,233.79 21.6,80.65 -21.7,188.23 19.2,258.88 14.6,25.37 38.6,43.8 66,59.6 -9.8,-8.79 -18.3,-18.57 -24.7,-29.84 -38.4,-66.33 2.3,-167.45 -18,-243.21 -2.5,-9.43 -6.2,-18.71 -10.6,-27.99 -12.1,-25.37 -29.9,-50.25 -47,-75.48 -25,-37.13 -48.3,-74.97 -48.3,-116.22 0,-1.7 0,-3.4 0.1,-5.1 -0.1,-1.7 -0.1,-3.47 -0.1,-5.17 0,-80.3 87.3,-148.04 107.1,-222.1 1.9,-7.16 3.3,-14.6 4.2,-22.25 3.3,-50.81 -8.9,-107.93 -3.1,-157.11 0.9,-20.91 4.5,-40.68 12.7,-58.33 v 0 c 1.3,-2.83 2.8,-5.52 4.3,-8.22 39.4,-68.03 148.9,-83.34 204.1,-138.54 55.2,-55.21 70.5,-164.7 138.5,-204.03 23.7,-13.75 51.8,-17.43 81.6,-17.43 17.8,0 36.3,1.28 54.8,2.62 18.4,1.35 36.9,2.7 54.9,2.7 19,0 37.5,-1.49 54.6,-6.1 74.1,-19.77 141.8,-107.08 222.2,-107.08 80.3,0 148,87.31 222,107.08 17.2,4.61 35.6,6.1 54.6,6.1 18,0 36.5,-1.35 55,-2.7 18.5,-1.34 37,-2.62 54.7,-2.62 29.9,0 57.9,3.68 81.7,17.43 68,39.33 83.3,148.82 138.5,204.03 49.5,49.53 142.8,66.9 189.7,119.06 5.5,6.02 10.2,12.47 14.4,19.48 13.5,23.39 17.3,51.17 17.4,80.51 0.1,54.85 -12.6,115.51 0.7,165.4 9.8,36.57 35.9,71.44 59.9,107.08 v 0 c 13.9,20.55 27,41.39 35.8,62.86 v 0 0 c 7.1,16.86 11.4,34.23 11.4,52.16 0,80.29 -87.3,148.04 -107.1,222.16 -20.5,76.61 20.7,178.8 -18.1,245.91 -11.2,19.21 -27.8,34.16 -47.3,46.99 -1.7,1.13 -3.4,2.26 -5.2,3.33 39,-19.42 75.4,-40.89 95.1,-74.98 40.9,-70.65 -2.4,-178.23 19.1,-258.88 20.9,-77.95 112.8,-149.31 112.8,-233.79 0,-32.74 -13.8,-63.49 -31.9,-93.47 -7.2,-11.9 -15.1,-23.67 -23.1,-35.43 -23.7,-34.87 -48.2,-69.17 -57.8,-104.88 -21.5,-80.65 21.8,-188.3 -19.1,-258.88 -41.4,-71.65 -156.6,-87.73 -214.8,-145.85 -58.1,-58.11 -74.2,-173.33 -145.8,-214.79 -7.6,-4.4 -15.6,-7.8 -24,-10.42 -19.1,-6.02 -40,-7.94 -61.8,-7.94 -4.5,0 -9,0.07 -13.6,0.22 -11.7,0.35 -23.5,1.13 -35.4,1.98 -2.9,0.21 -5.8,0.42 -8.7,0.64 -19.4,1.41 -38.9,2.76 -57.9,2.76 -20,0 -39.4,-1.56 -57.4,-6.38 -19.7,-5.24 -39,-15.02 -58.1,-26.71 -56.8,-34.66 -112.6,-86.04 -175.7,-86.04 m 673.2,1596.71 c -25.1,12.68 -48.7,26.36 -66.7,44.36 -1.5,1.49 -3.1,3.11 -4.6,4.74 -51.5,56.49 -67.7,161.02 -133.9,199.28 -5.9,3.4 -12,6.17 -18.4,8.44 15.4,-2.77 29.9,-7.45 43,-15.03 58.1,-33.59 79.6,-115.65 116.6,-176.46 8,-13.04 16.5,-25.08 26.4,-35.43 0.9,-0.99 1.9,-1.98 2.8,-2.98 10.2,-10.06 22,-18.92 34.8,-26.92 m -1316.8,22.11 c 1.7,1.55 3.4,3.18 5.1,4.88 0.9,0.93 1.9,1.92 2.8,2.91 9.9,10.35 18.4,22.39 26.4,35.43 37,60.81 58.5,142.87 116.5,176.46 7.7,4.4 15.8,7.87 24.3,10.49 -1.7,-0.85 -3.1,-1.63 -4.7,-2.55 -67.3,-38.91 -82.4,-147.19 -137,-201.83 -9.7,-9.64 -21.1,-18.07 -33.4,-25.79 m 838.7,254.41 c -63.8,29.83 -124.7,97.08 -195.1,97.08 -1.8,0 -3.5,-0.07 -5.2,-0.14 -0.1,0 -0.2,0 -0.3,0 1.8,0.14 3.6,0.14 5.5,0.14 70.4,0 131.6,-63.78 195.1,-97.08"
               style="fill:url(#linearGradient7786);fill-opacity:1;fill-rule:nonzero;stroke:none"
               id="path7788" />
          </g>
        </g>
      </g>
      <g
         id="g7790">
        <g
           id="g7792"
           clip-path="url(#clipPath7796)">
          <g
             id="g7798"
             transform="scale(1.40683)">
            <path
               d="m 15361.4,4398.83 c -80.6,0 -148.6,87.58 -222.9,107.41 -17.2,4.62 -35.7,6.11 -54.7,6.11 -18.1,0 -36.6,-1.35 -55.2,-2.7 -18.5,-1.35 -37,-2.63 -54.8,-2.63 -30,0 -58.1,3.69 -81.9,17.48 -68.3,39.45 -83.6,149.28 -139,204.65 -55.4,55.37 -165.2,70.73 -204.6,138.96 -1.6,2.71 -3.1,5.41 -4.4,8.25 1.8,1 3.6,2.06 5.4,3.2 41,-64.12 146.3,-79.68 200,-133.35 54.8,-54.81 69.9,-163.42 137.5,-202.44 23.5,-13.58 51.3,-17.28 80.8,-17.28 17.7,0 36,1.28 54.3,2.63 18.5,1.36 36.8,2.64 54.6,2.64 18.9,0 37.2,-1.5 54.2,-5.98 73.4,-19.69 140.7,-106.33 220.4,-106.33 79.6,0 146.7,86.64 220.2,106.33 17,4.48 35.3,5.98 54.2,5.98 17.8,0 36.2,-1.28 54.5,-2.64 18.4,-1.35 36.7,-2.63 54.4,-2.63 29.5,0 57.4,3.7 80.9,17.28 67.5,39.02 82.6,147.63 137.4,202.37 54.8,54.8 163.4,69.94 202.4,137.4 38.5,66.6 -2.3,168.04 18,244.02 8.5,31.92 29.8,62.7 51,93.76 9.5,0.35 19,0.64 28.6,0.85 -24.1,-35.75 -50.3,-70.72 -60.1,-107.4 -13.4,-50.04 -0.6,-110.89 -0.7,-165.91 -0.1,-29.42 -3.9,-57.29 -17.5,-80.75 -4.1,-7.03 -8.9,-13.5 -14.4,-19.54 -47.1,-52.32 -140.6,-69.74 -190.3,-119.42 -55.3,-55.37 -70.7,-165.2 -138.9,-204.65 -23.8,-13.79 -52,-17.48 -81.9,-17.48 -17.8,0 -36.3,1.28 -54.9,2.63 -18.5,1.35 -37.1,2.7 -55.1,2.7 -19.2,0 -37.6,-1.49 -54.8,-6.11 -74.2,-19.83 -142.2,-107.41 -222.7,-107.41 m -827.1,693.62 c -1,7.67 -2.3,15.14 -4.2,22.32 -19.9,74.28 -107.4,142.23 -107.4,222.77 0,1.71 0,3.48 0,5.19 3.7,-77.41 86.9,-143.3 106.2,-215.17 2.9,-11.23 4.6,-22.96 5.4,-35.11 m 1728.5,191.71 c 10,20.54 16.6,41.65 16.6,63.69 0,79.68 -86.6,146.92 -106.3,220.35 -20.3,75.99 20.5,177.42 -18,243.95 -11,19.12 -27.6,34.05 -47,46.77 -49.1,32.49 -116.1,51.4 -155.3,90.63 -2.6,2.56 -5,5.12 -7.2,7.82 -49.1,56.8 -65.9,157.38 -130.3,194.63 -15.6,9.02 -33.1,13.64 -51.6,15.77 17.1,-0.78 33.6,-3.26 48.7,-8.67 6.4,-2.27 12.5,-5.04 18.4,-8.45 66.4,-38.39 82.7,-143.23 134.3,-199.89 1.5,-1.63 3.1,-3.27 4.6,-4.76 18,-18.05 41.8,-31.77 66.9,-44.5 28.6,-14.43 59.1,-27.58 85.2,-44 1.8,-1.06 3.5,-2.2 5.2,-3.34 19.5,-12.86 36.2,-27.86 47.4,-47.13 38.9,-67.31 -2.3,-169.81 18.2,-246.65 19.8,-74.35 107.4,-142.31 107.4,-222.84 0,-17.99 -4.3,-35.4 -11.4,-52.32 v 0 c -8.1,-0.35 -16.8,-0.64 -25.8,-1.06 m -656.5,880.42 c -12.1,0.78 -23.8,2.48 -35,5.47 -71.8,19.19 -137.8,102.5 -215.1,106.05 1.7,0.07 3.4,0.15 5.2,0.15 70.6,0 131.7,-67.46 195.7,-97.39 9,-4.19 17.9,-7.6 27,-10.02 7.2,-1.92 14.6,-3.34 22.2,-4.26"
               style="fill:url(#linearGradient7806);fill-opacity:1;fill-rule:nonzero;stroke:none"
               id="path7808" />
          </g>
        </g>
      </g>
      <g
         id="g7810">
        <g
           id="g7812"
           clip-path="url(#clipPath7816)">
          <g
             id="g7818"
             transform="scale(1.40505)">
            <path
               d="m 15370.5,4425.04 c -79.8,0 -147.1,86.76 -220.6,106.47 -17,4.49 -35.3,5.98 -54.3,5.98 -17.8,0 -36.2,-1.28 -54.6,-2.63 -18.4,-1.35 -36.7,-2.63 -54.4,-2.63 -29.6,0 -57.4,3.7 -81,17.29 -67.6,39.07 -82.8,147.82 -137.6,202.7 -53.8,53.73 -159.2,69.32 -200.3,133.52 85.1,49.96 207.4,107.04 379.9,160.28 v -165.91 -29.89 h 29.9 269.3 29.9 v 29.89 90.68 h 194.4 v -90.68 -29.89 h 29.9 269.2 29.9 v 29.89 321.06 c 135.4,12.46 283.2,21.64 444.5,26.76 -21.2,-31.1 -42.5,-61.92 -51,-93.87 -20.4,-76.09 20.5,-177.65 -18,-244.34 -39.1,-67.54 -147.8,-82.7 -202.7,-137.57 -54.9,-54.81 -70,-163.56 -137.6,-202.63 -23.5,-13.59 -51.4,-17.29 -81,-17.29 -17.7,0 -36.1,1.28 -54.4,2.63 -18.4,1.35 -36.7,2.63 -54.6,2.63 -18.9,0 -37.2,-1.49 -54.2,-5.98 -73.6,-19.71 -140.9,-106.47 -220.6,-106.47 m -821,516.07 c -5.7,49.39 6.5,106.76 3.2,157.79 -0.8,12.17 -2.5,23.91 -5.4,35.16 -19.3,71.95 -102.7,137.93 -106.3,215.43 -0.1,1.71 -0.1,3.42 -0.1,5.13 0,41.42 23.4,79.43 48.6,116.72 17.1,25.34 35,50.32 47.1,75.8 4.5,9.32 8.2,18.64 10.7,28.11 20.3,76.08 -20.5,177.65 18,244.26 6.5,11.32 15,21.14 24.9,29.97 38.6,34.51 98.3,53.09 144.2,81.7 12.4,7.76 23.9,16.23 33.6,25.91 54.8,54.87 70,163.62 137.6,202.7 1.6,0.92 3.1,1.7 4.7,2.56 16.9,8.68 36,12.67 56.2,14.09 6.6,0.5 13.3,0.71 20.1,0.71 5.1,0 10.3,-0.14 15.5,-0.36 12.8,-0.42 25.8,-1.42 38.9,-2.34 18.4,-1.36 36.8,-2.64 54.6,-2.64 19,0 37.3,1.5 54.3,6.05 73.5,19.65 140.8,106.33 220.6,106.33 1.6,0 3.2,-0.07 4.8,-0.14 0.1,0 0.2,0 0.3,0 77.5,-3.56 143.5,-86.97 215.5,-106.19 11.1,-2.99 22.9,-4.69 35,-5.48 6.3,-0.43 12.6,-0.57 19.1,-0.57 17.9,0 36.3,1.28 54.7,2.64 13.5,0.99 27,1.99 40.3,2.42 4.7,0.14 9.4,0.28 14.1,0.28 7.3,0 14.4,-0.28 21.5,-0.78 2.6,-0.22 5.2,-0.43 7.8,-0.79 18.6,-2.13 36.1,-6.76 51.7,-15.79 64.5,-37.3 81.3,-138.01 130.5,-194.87 2.2,-2.71 4.6,-5.27 7.2,-7.83 39.3,-39.29 106.3,-58.22 155.5,-90.75 19.4,-12.74 36.1,-27.68 47.1,-46.83 38.5,-66.61 -2.4,-168.18 18,-244.26 19.7,-73.52 106.4,-140.85 106.4,-220.63 0,-22.07 -6.6,-43.2 -16.7,-63.77 -109.9,-4.49 -282.4,-13.88 -483.2,-33.1 v 95.66 h 46.4 76.6 l -56.3,51.88 -472.7,435.5 -20.2,18.65 -20.3,-18.65 -472.6,-435.5 -56.3,-51.88 h 76.6 46.3 v -231.45 c -122,-29.97 -238.9,-65.06 -344.5,-106.12 -19.7,-22.85 -37.6,-43.7 -53.9,-62.92 0,-3.98 0.1,-7.9 0.3,-11.81"
               style="fill:url(#linearGradient7826);fill-opacity:1;fill-rule:nonzero;stroke:none"
               id="path7828" />
          </g>
        </g>
      </g>
      <g
         id="g7830">
        <g
           id="g7832"
           clip-path="url(#clipPath7836)">
          <g
             id="g7838"
             transform="scale(1.28485)">
            <path
               d="m 16283.4,6022.35 c -143.2,-22.88 -321.6,-34.01 -438.4,-39.15 18.8,27.71 38.3,55.03 51.6,82.89 102,-6.53 241.4,-11.67 382.9,-5.37 24.3,1.01 28,-34.48 3.9,-38.37"
               style="fill:url(#linearGradient7850);fill-opacity:1;fill-rule:nonzero;stroke:none"
               id="path7852" />
          </g>
        </g>
      </g>
      <g
         id="g7854">
        <g
           id="g7856"
           clip-path="url(#clipPath7860)">
          <g
             id="g7862"
             transform="scale(1.40585)">
            <path
               d="m 14554.1,4879.76 c -8.3,17.72 -11.8,37.56 -12.8,58.55 -0.2,3.91 -0.3,7.82 -0.3,11.8 16.2,19.21 34.1,40.05 53.8,62.88 105.6,41.05 222.4,76.11 344.3,106.06 v -75.9 c -172.4,-53.2 -294.6,-110.25 -379.6,-160.19 -1.8,-1.13 -3.6,-2.2 -5.4,-3.2 v 0 m 1237,318.46 v 56.55 c 200.8,19.2 373.1,28.6 483,33.08 9,0.42 17.7,0.71 25.9,1.06 v 0 c -8.9,-21.55 -22.1,-42.46 -36,-63.09 v 0 c -9.5,-0.21 -19.1,-0.5 -28.6,-0.85 -161.2,-5.13 -309,-14.3 -444.3,-26.75"
               style="fill:url(#linearGradient7874);fill-opacity:1;fill-rule:nonzero;stroke:none"
               id="path7876" />
          </g>
        </g>
      </g>
      <g
         id="g7878">
        <g
           id="g7880"
           clip-path="url(#clipPath7884)">
          <g
             id="g7886"
             transform="scale(1.3975)">
            <path
               d="m 16300,4981.91 c -0.1,-29.63 -3.9,-57.68 -17.6,-81.29 -4.2,-7.09 -8.9,-13.6 -14.5,-19.68 -97,-24.9 -345.4,-84.58 -584.5,-108.19 -16.7,-1.65 -20.2,22.97 -3.7,25.97 244.1,45.01 489.2,132.31 620.3,183.19"
               style="fill:url(#linearGradient7898);fill-opacity:1;fill-rule:nonzero;stroke:none"
               id="path7900" />
          </g>
        </g>
      </g>
      <g
         id="g7902">
        <g
           id="g7904"
           clip-path="url(#clipPath7908)">
          <g
             id="g7910"
             transform="scale(1.3919)">
            <path
               d="m 16300,5916.97 c -125,-33.2 -482.4,-120.7 -790,-122 -19.1,-0.07 -21.8,27.66 -3,31.18 245.3,46.06 494.8,135.79 629.4,188.45 1.5,-1.65 3.1,-3.3 4.6,-4.81 40.2,-40.23 108.8,-59.56 159,-92.82"
               style="fill:url(#linearGradient7922);fill-opacity:1;fill-rule:nonzero;stroke:none"
               id="path7924" />
          </g>
        </g>
      </g>
      <g
         id="g7926">
        <g
           id="g7928"
           clip-path="url(#clipPath7932)">
          <g
             id="g7934"
             transform="scale(1.36596)">
            <path
               d="m 16221.5,5019.78 h -276.9 v 124.01 h -261.5 v -124.01 h -277 v 517.58 h -78.4 l 486.2,447.97 259.8,-239.4 -3.4,3.01 -256.4,236.31 -448.8,-413.48 h 72.4 v -477.76 h 210.4 v 23.06 89.46 h 296.8 v -112.52 h 242.2 l 0.1,471.46 75.6,6.3 -6.7,6.22 v 0 l 44.1,-40.63 h -78.5 v -517.58"
               style="fill:url(#linearGradient7942);fill-opacity:1;fill-rule:nonzero;stroke:none"
               id="path7944" />
          </g>
        </g>
      </g>
      <g
         id="g7946"
         transform="scale(1.37256)">
        <path
           d="m 15737.8,5998.14 -20.7,-19.08 -483.9,-445.82 -57.6,-53.11 h 78.4 47.4 v -484.49 -30.6 h 30.6 275.7 30.6 v 30.6 92.81 h 199 v -92.81 -30.6 h 30.6 275.6 30.6 v 30.6 484.49 h 47.5 78.4 l -57.6,53.11 -483.9,445.82 -20.7,19.08 m 0,-41.6 483.8,-445.81 h -78.1 v -515.09 h -275.6 v 123.41 h -260.2 V 4995.64 H 15332 v 515.09 h -78 l 483.8,445.81"
           style="fill:#5a2903;fill-opacity:1;fill-rule:nonzero;stroke:none"
           id="path7948" />
      </g>
      <g
         id="g7950">
        <g
           id="g7952"
           clip-path="url(#clipPath7956)">
          <g
             id="g7958"
             transform="scale(1.36282)">
            <path
               d="m 16224.1,5105.73 h -242.7 v 112.78 h -297.5 v 19.15 h 297.5 v -108.82 h 231.5 v 461.99 h 80.4 l 6.7,-6.24 -75.7,-6.31 -0.2,-472.55 m -540.2,0 H 15473 v 478.86 h -72.6 l 449.9,414.43 257,-236.86 c -91.9,-135.67 -276.2,-312.88 -634.3,-399.24 v -234.08 h 210.9 v -23.11"
               style="fill:url(#linearGradient7968);fill-opacity:1;fill-rule:nonzero;stroke:none"
               id="path7970" />
          </g>
        </g>
      </g>
      <g
         id="g7972">
        <g
           id="g7974"
           clip-path="url(#clipPath7978)">
          <g
             id="g7980"
             transform="scale(1.36226)">
            <path
               d="m 16300,5593.12 h -0.1 l -186,171.4 3.4,-3.01 182.7,-168.39"
               style="fill:url(#linearGradient7988);fill-opacity:1;fill-rule:nonzero;stroke:none"
               id="path7990" />
          </g>
        </g>
      </g>
      <g
         id="g7992"
         transform="scale(1.36282)">
        <path
           d="m 16300,5590.83 h -6.7 l -182.6,168.32 189.3,-168.32"
           style="fill:#503f1b;fill-opacity:1;fill-rule:nonzero;stroke:none"
           id="path7994" />
      </g>
      <g
         id="g7996">
        <g
           id="g7998"
           clip-path="url(#clipPath8002)">
          <g
             id="g8004"
             transform="scale(1.36226)">
            <path
               d="M 16219.6,5130.97 H 15988 v 108.86 h -297.6 v -19.16 -89.7 h -211 v 234.17 c 358.3,86.4 542.6,263.68 634.6,399.41 v 0 l 186,-171.41 h -80.4 v -462.17"
               style="fill:url(#linearGradient8014);fill-opacity:1;fill-rule:nonzero;stroke:none"
               id="path8016" />
          </g>
        </g>
      </g>
    </g>
  </g>
</svg>
